<svg 
  preserveAspectRatio="xMidYMid meet" 
  data-bbox="52.128 20 95.744 160" 
  viewBox="52.128 20 95.744 160" 
  height="200" 
  width="200" 
  xmlns="http://www.w3.org/2000/svg" 
  data-type="color" role="presentation" 
  aria-hidden="true" 
  aria-label="">
<defs></defs>
<g>
  <path 
  d="M100 106.775c-21.452 0-38.904-17.452-38.904-38.903 0-21.452 17.452-38.904 38.904-38.904 21.451 0 38.903 17.452 38.903 38.904 0 21.451-17.452 38.903-38.903 38.903zm0-74.807c-19.797 0-35.904 16.106-35.904 35.904S80.203 103.775 100 103.775c19.797 0 35.903-16.106 35.903-35.903S119.797 31.968 100 31.968z"
  fill="#F2B263"
  data-color="1">
</path>
<path 
  fill="#F2B263"
  data-color="1"
  d="M100 180c-9.131 0-16.559-7.429-16.559-16.56l.004-.264a1.468 1.468 0 0 1 .004-.265 15.787 15.787 0 0 1 .354-2.911c1.553-11.991 4.492-25.166 7.864-35.255 2.355-7.044-3.669-10.241-5.688-11.091-20.252-6.193-33.851-24.582-33.851-45.783C52.128 41.475 73.603 20 100 20c26.396 0 47.872 21.475 47.872 47.872 0 21.214-13.611 39.606-33.878 45.791-2.017.854-8.017 4.062-5.669 11.083 3.362 10.062 6.296 23.201 7.852 35.16a16.602 16.602 0 0 1 .374 3.161l.009.373c0 9.131-7.429 16.56-16.56 16.56zm-13.552-16.946v.048l-.006.339c0 7.477 6.083 13.56 13.559 13.56s13.56-6.083 13.56-13.56l-.01-.338v-.049a13.544 13.544 0 0 0-.316-2.562 1.21 1.21 0 0 1-.023-.134c-1.529-11.795-4.42-24.753-7.73-34.66-2.538-7.594 2.172-12.641 7.427-14.832.046-.02.094-.036.142-.051 19.035-5.775 31.824-23.033 31.824-42.942C144.872 43.129 124.742 23 100 23c-24.743 0-44.872 20.129-44.872 44.872 0 19.896 12.778 37.15 31.796 42.935.046.015.092.031.137.05 8.039 3.327 9.12 9.848 7.451 14.841-3.32 9.933-6.215 22.923-7.743 34.75a1.783 1.783 0 0 1-.021.124 13.79 13.79 0 0 0-.162.871 13.756 13.756 0 0 0-.138 1.611z"  >
</path>
</g>
</svg>
