<svg preserveAspectRatio="xMidYMid meet" data-bbox="55.964 20.002 88.075 160.002" viewBox="55.964 20.002 88.075 160.002" height="200" width="200" xmlns="http://www.w3.org/2000/svg" data-type="color" role="img" aria-label="Consultation"><defs><style>#comp-l44bcuh1 svg [data-color="1"] {fill: #543E33;}</style></defs>
    <g>
        <path d="M143.052 113.059a57.636 57.636 0 0 0-3.33-11.243 45.415 45.415 0 0 0-1.425-3.124 26.336 26.336 0 0 0-.561-1.054l-.034-.06-.01-.017-.003-.005-.001-.002-.006-.01-.026-.045-.105-.184a84.28 84.28 0 0 1-.406-.722c-.351-.633-.853-1.558-1.458-2.721a137.72 137.72 0 0 1-4.431-9.38c-3.241-7.608-6.401-17.097-6.401-25.055 0-8.851 3.164-18.156 6.39-25.321a103.5 103.5 0 0 1 4.417-8.683 82.668 82.668 0 0 1 1.451-2.45 42.43 42.43 0 0 1 .506-.802l.025-.039a.068.068 0 0 0 .006-.009l.001-.002a1.373 1.373 0 0 0-2.294-1.51l-.001.001-.001.001-.002.004-.008.013-.03.047-.114.177a85.05 85.05 0 0 0-1.923 3.209 106.382 106.382 0 0 0-4.535 8.916c-3.285 7.296-6.632 17.022-6.632 26.449 0 8.541 3.351 18.458 6.62 26.132a140.093 140.093 0 0 0 4.521 9.57 116.832 116.832 0 0 0 1.914 3.536l.113.197.03.051.008.014.002.004.001.001v.001l.002.003.001.001.005.008.024.042.103.184c.091.166.226.419.395.753.338.668.81 1.659 1.337 2.933a54.91 54.91 0 0 1 3.17 10.704c1.691 8.948 1.689 21.073-5.063 33.864l-.024.044-.095.174a144.623 144.623 0 0 0-1.615 3.096 158.417 158.417 0 0 0-3.821 8.101c-1.389 3.187-2.788 6.727-3.841 10.152-1.047 3.405-1.782 6.786-1.782 9.627a1.374 1.374 0 1 0 2.748 0c0-2.433.642-5.507 1.661-8.82 1.012-3.292 2.368-6.73 3.734-9.862a155.564 155.564 0 0 1 4.989-10.343l.344-.643.09-.165.022-.041.005-.01.001-.002.011-.021c7.108-13.475 7.107-26.265 5.331-35.664z" fill="#000010" data-color="1"></path>
        <path d="m124.449 148.793.022-.041.005-.01.001-.002.011-.021c7.113-13.471 7.111-26.26 5.335-35.66a57.636 57.636 0 0 0-3.33-11.243 45.415 45.415 0 0 0-1.425-3.124 26.336 26.336 0 0 0-.561-1.054l-.034-.06-.01-.017-.003-.005-.001-.002-.006-.01-.026-.045-.105-.184a84.28 84.28 0 0 1-.406-.722c-.351-.633-.853-1.558-1.458-2.721a137.72 137.72 0 0 1-4.431-9.38c-3.241-7.608-6.401-17.097-6.401-25.055 0-8.851 3.164-18.156 6.39-25.321a103.5 103.5 0 0 1 4.417-8.683 82.668 82.668 0 0 1 1.451-2.45 42.43 42.43 0 0 1 .506-.802l.025-.039a.068.068 0 0 0 .006-.009l.001-.002a1.373 1.373 0 0 0-2.294-1.51l-.001.001-.001.001-.002.004-.008.013-.03.047-.114.177a82.908 82.908 0 0 0-1.923 3.209 106.382 106.382 0 0 0-4.535 8.916c-3.285 7.296-6.632 17.022-6.632 26.449 0 8.541 3.351 18.458 6.62 26.132a140.093 140.093 0 0 0 4.521 9.57 116.832 116.832 0 0 0 1.914 3.536l.113.197.03.051.008.014.002.004.001.001v.001l.002.003.001.001.005.008.024.042.103.184c.091.166.226.419.395.753.338.668.81 1.659 1.337 2.933a54.91 54.91 0 0 1 3.17 10.704c1.691 8.948 1.689 21.073-5.063 33.864l-.024.044-.095.174a144.623 144.623 0 0 0-1.615 3.096 158.417 158.417 0 0 0-3.821 8.101c-1.389 3.187-2.788 6.727-3.841 10.152-1.047 3.405-1.782 6.786-1.782 9.627a1.374 1.374 0 1 0 2.748 0c0-2.433.642-5.507 1.661-8.82 1.012-3.292 2.368-6.73 3.734-9.862a155.564 155.564 0 0 1 4.989-10.343l.344-.643c.036-.077.066-.132.086-.169z" fill="#000010" data-color="1"></path>
        <path d="m111.218 148.793.022-.041.005-.01.001-.002.011-.021c7.113-13.471 7.111-26.26 5.335-35.66a57.636 57.636 0 0 0-3.33-11.243 45.415 45.415 0 0 0-1.425-3.124 26.336 26.336 0 0 0-.561-1.054l-.034-.06-.01-.017-.003-.005-.001-.002-.006-.01-.026-.045-.105-.184a84.28 84.28 0 0 1-.406-.722c-.351-.633-.853-1.558-1.458-2.721a137.72 137.72 0 0 1-4.431-9.38c-3.241-7.608-6.401-17.097-6.401-25.055 0-8.851 3.164-18.156 6.39-25.321a103.5 103.5 0 0 1 4.417-8.683 82.668 82.668 0 0 1 1.451-2.45 42.43 42.43 0 0 1 .506-.802l.025-.039a.068.068 0 0 0 .006-.009l.001-.002a1.373 1.373 0 0 0-2.294-1.51l-.001.001-.001.001-.002.004-.008.013-.03.047-.114.177a82.908 82.908 0 0 0-1.923 3.209 106.382 106.382 0 0 0-4.535 8.916c-3.285 7.296-6.632 17.022-6.632 26.449 0 8.541 3.351 18.458 6.62 26.132a140.093 140.093 0 0 0 4.521 9.57 116.832 116.832 0 0 0 1.914 3.536l.113.197.03.051.008.014.002.004.001.001v.001l.002.003.001.001.005.008.024.042.103.184c.091.166.226.419.395.753.338.668.81 1.659 1.337 2.933a54.91 54.91 0 0 1 3.17 10.704c1.691 8.948 1.689 21.073-5.063 33.864l-.024.044-.095.174a144.623 144.623 0 0 0-1.615 3.096 158.417 158.417 0 0 0-3.821 8.101c-1.389 3.187-2.788 6.727-3.841 10.152-1.047 3.405-1.782 6.786-1.782 9.627a1.374 1.374 0 1 0 2.748 0c0-2.433.642-5.507 1.661-8.82 1.012-3.292 2.368-6.73 3.734-9.862a155.564 155.564 0 0 1 4.989-10.343l.344-.643c.036-.077.066-.132.086-.169z" fill="#000010" data-color="1"></path>
        <path d="m97.991 148.793.022-.041.005-.01.001-.002.011-.021c7.113-13.471 7.111-26.26 5.335-35.66a57.636 57.636 0 0 0-3.33-11.243 45.415 45.415 0 0 0-1.425-3.124 26.336 26.336 0 0 0-.561-1.054l-.034-.06-.01-.017-.003-.004-.001-.002-.006-.011-.026-.045-.105-.184a113.928 113.928 0 0 1-1.863-3.443 137.72 137.72 0 0 1-4.431-9.38c-3.241-7.608-6.401-17.097-6.401-25.055 0-8.851 3.164-18.156 6.39-25.321a103.5 103.5 0 0 1 4.417-8.683 82.668 82.668 0 0 1 1.451-2.45 42.43 42.43 0 0 1 .506-.802l.025-.039a.068.068 0 0 0 .006-.009l.001-.002a1.373 1.373 0 0 0-2.295-1.51v.001l-.001.001-.002.004-.008.013-.031.047-.114.177a85.05 85.05 0 0 0-1.923 3.209 106.382 106.382 0 0 0-4.535 8.916c-3.285 7.296-6.632 17.022-6.632 26.449 0 8.541 3.351 18.458 6.62 26.132a139.808 139.808 0 0 0 4.521 9.569 116.832 116.832 0 0 0 1.914 3.536l.113.197.03.051.008.014.002.004.001.001v.001l.002.003.001.001a3.042 3.042 0 0 0 .029.05l.103.184c.091.166.226.419.395.753.338.668.81 1.659 1.337 2.933a54.91 54.91 0 0 1 3.17 10.704c1.691 8.948 1.689 21.073-5.063 33.864l-.024.044-.095.174c-.082.152-.203.375-.355.663a158.417 158.417 0 0 0-5.081 10.534c-1.389 3.187-2.788 6.727-3.841 10.152-1.047 3.405-1.782 6.786-1.782 9.627a1.374 1.374 0 1 0 2.748 0c0-2.433.642-5.507 1.661-8.82 1.012-3.292 2.368-6.73 3.734-9.862a155.564 155.564 0 0 1 4.989-10.343l.344-.643c.036-.076.066-.131.086-.168z" fill="#000010" data-color="1"></path>
        <path d="m84.761 148.793.022-.041.005-.01.001-.002.011-.021c7.113-13.471 7.111-26.26 5.335-35.66a57.636 57.636 0 0 0-3.33-11.243 45.415 45.415 0 0 0-1.425-3.124 26.336 26.336 0 0 0-.561-1.054l-.034-.06-.01-.017-.003-.005-.001-.002-.006-.01-.026-.045-.105-.184a84.28 84.28 0 0 1-.406-.722c-.351-.633-.853-1.558-1.458-2.721a137.72 137.72 0 0 1-4.431-9.38c-3.241-7.608-6.401-17.097-6.401-25.055 0-8.851 3.164-18.156 6.39-25.321a103.5 103.5 0 0 1 4.417-8.683 82.668 82.668 0 0 1 1.451-2.45 42.43 42.43 0 0 1 .506-.802l.025-.039a.068.068 0 0 0 .006-.009l.001-.002a1.373 1.373 0 0 0-2.294-1.51l-.001.001-.001.001-.002.004-.008.013-.03.047-.114.177a82.908 82.908 0 0 0-1.923 3.209 106.382 106.382 0 0 0-4.535 8.916c-3.285 7.296-6.632 17.022-6.632 26.449 0 8.541 3.351 18.458 6.62 26.132a140.093 140.093 0 0 0 4.521 9.57 116.832 116.832 0 0 0 1.914 3.536l.113.197.03.051.008.014.002.004.001.001v.001l.002.003.001.001.005.008.024.042.103.184c.091.166.226.419.395.753.338.668.81 1.659 1.337 2.933a54.91 54.91 0 0 1 3.17 10.704c1.691 8.948 1.689 21.073-5.063 33.864l-.024.044-.095.174a144.623 144.623 0 0 0-1.615 3.096 158.417 158.417 0 0 0-3.821 8.101c-1.389 3.187-2.788 6.727-3.841 10.152-1.047 3.405-1.782 6.786-1.782 9.627a1.374 1.374 0 1 0 2.748 0c0-2.433.642-5.507 1.661-8.82 1.012-3.292 2.368-6.73 3.734-9.862a155.564 155.564 0 0 1 4.989-10.343l.344-.643c.035-.077.066-.132.086-.169z" fill="#000010" data-color="1"></path>
        <path d="m71.53 148.793.022-.041.005-.01.001-.002.011-.021c7.113-13.471 7.111-26.26 5.335-35.66a57.636 57.636 0 0 0-3.33-11.243 45.415 45.415 0 0 0-1.425-3.124 26.336 26.336 0 0 0-.561-1.054l-.034-.06-.01-.017-.003-.005-.001-.002-.006-.01-.026-.045-.105-.184a117.723 117.723 0 0 1-1.863-3.443 137.72 137.72 0 0 1-4.431-9.38c-3.241-7.608-6.401-17.097-6.401-25.055 0-8.851 3.164-18.156 6.39-25.321a103.5 103.5 0 0 1 4.417-8.683 82.668 82.668 0 0 1 1.451-2.45 42.43 42.43 0 0 1 .506-.802l.025-.039a.068.068 0 0 0 .006-.009l.001-.002a1.373 1.373 0 0 0-2.294-1.51l-.001.001-.001.001-.002.004-.008.013-.03.047-.114.177a82.908 82.908 0 0 0-1.923 3.209 106.382 106.382 0 0 0-4.535 8.916c-3.285 7.296-6.632 17.022-6.632 26.449 0 8.541 3.351 18.458 6.62 26.132a140.093 140.093 0 0 0 4.521 9.57 116.832 116.832 0 0 0 1.914 3.536l.113.197.03.051.008.014.002.004.001.001v.001l.002.003.001.001.005.008.024.042.103.184c.091.166.226.419.395.753.338.668.81 1.659 1.337 2.933a54.91 54.91 0 0 1 3.17 10.704c1.691 8.948 1.689 21.073-5.063 33.864l-.024.044-.095.174a144.623 144.623 0 0 0-1.615 3.096 158.417 158.417 0 0 0-3.821 8.101c-1.389 3.187-2.788 6.727-3.841 10.152-1.047 3.405-1.782 6.786-1.782 9.627a1.374 1.374 0 1 0 2.748 0c0-2.433.642-5.507 1.661-8.82 1.012-3.292 2.368-6.73 3.734-9.862a155.564 155.564 0 0 1 4.989-10.343l.344-.643c.035-.077.065-.132.085-.169z" fill="#000010" data-color="1"></path>
    </g>
</svg>