<svg preserveAspectRatio="xMidYMid meet" data-bbox="50.896 20 98.207 160.002" viewBox="50.896 20 98.207 160.002" height="200" width="200" xmlns="http://www.w3.org/2000/svg" data-type="color" role="img" aria-label="Makeup"><defs><style>#comp-l4nz314h svg [data-color="1"] {fill: #543E33;}</style></defs>
    <g>
        <path d="M91.518 116.512h-3.583V51.216c0-.759-.615-1.374-1.374-1.374h-2.146V31.875c0-2.358-.967-4.684-2.518-6.332-1.562-1.66-3.819-2.724-6.344-2.257-1.2.222-3.296 1.039-4.954 1.726a113.856 113.856 0 0 0-3.11 1.346l-.05.023a.118.118 0 0 1-.013.006l-.004.002h-.001c-2.652.92-4.652 2.896-5.976 5.11-1.345 2.249-2.067 4.85-2.067 7.115v11.228h-2.151c-.759 0-1.374.615-1.374 1.374v65.297H52.27c-.759 0-1.374.615-1.374 1.374v60.741c0 .759.615 1.374 1.374 1.374h39.247c.759 0 1.374-.615 1.374-1.374v-60.741c0-.76-.615-1.375-1.373-1.375zM62.125 38.614c0-1.731.568-3.85 1.677-5.706 1.107-1.851 2.682-3.327 4.617-3.965l.139-.055h.001l.003-.001.012-.005.047-.021.182-.082c.159-.071.389-.174.671-.298.566-.249 1.34-.584 2.176-.931 1.735-.719 3.545-1.403 4.403-1.562 1.406-.26 2.768.296 3.843 1.438 1.086 1.154 1.772 2.811 1.772 4.449v17.967H62.125V38.614zm-3.524 13.975h2.128c.008 0 .015.005.023.005h22.29c.008 0 .015-.004.023-.005h2.124v63.921H58.601V52.589zm31.543 124.664h-36.5v-57.994h36.5v57.994z" fill="#000010" data-color="1"></path>
        <path d="M147.729 20h-39.247c-.759 0-1.374.615-1.374 1.374v157.253c0 .759.615 1.374 1.374 1.374h39.247c.759 0 1.374-.615 1.374-1.374V21.374A1.374 1.374 0 0 0 147.729 20zm-1.374 157.253h-36.5V119.26h36.5v57.993zm0-60.741h-36.5V22.747h36.5v93.765z" fill="#000010" data-color="1"></path>
    </g>
</svg>