<svg preserveAspectRatio="xMidYMid meet" data-bbox="63.508 20 72.946 160.01" viewBox="63.508 20 72.946 160.01" height="200" width="200" xmlns="http://www.w3.org/2000/svg" data-type="color" role="img" aria-label="Hairstyling"><defs><style>#comp-l4odxoxz svg [data-color="1"] {fill: #543E33;}</style></defs>
    <g>
        <path d="M108.551 20H81.544c-9.94 0-17.999 8.059-17.999 17.999 0 .759.615 1.374 1.374 1.374h29.816v8.629H64.919a1.374 1.374 0 1 0 0 2.748h29.816v8.526H64.919a1.374 1.374 0 1 0 0 2.747h29.816v8.531H64.919a1.374 1.374 0 1 0 0 2.748h29.816v8.52H64.919a1.374 1.374 0 1 0 0 2.748h29.816v8.526H64.919a1.374 1.374 0 1 0 0 2.748h29.816v8.526H64.919a1.374 1.374 0 1 0 0 2.747h29.816v8.526H64.919a1.374 1.374 0 1 0 0 2.748h29.816v8.526H64.919a1.374 1.374 0 1 0 0 2.748h29.816v8.526H64.919a1.374 1.374 0 1 0 0 2.747h29.816v8.526H64.919a1.374 1.374 0 1 0 0 2.748h29.816v8.233l-29.825.193a1.374 1.374 0 0 0-1.365 1.373c0 9.94 8.059 17.999 17.999 17.999h27.006c15.41 0 27.904-12.493 27.904-27.904V47.904c0-15.411-12.493-27.904-27.903-27.904zm25.156 132.096c0 13.893-11.263 25.157-25.157 25.157H81.544c-7.962 0-14.492-6.105-15.183-13.887l29.756-.193a1.374 1.374 0 0 0 1.365-1.373V37.999c0-.759-.615-1.374-1.373-1.374H66.362c.696-7.778 7.223-13.878 15.182-13.878h27.006c13.893 0 25.157 11.263 25.157 25.157v104.192z"  fill="#F2B263" data-color="1"></path>
    </g>
</svg>
