<svg xmlns="http://www.w3.org/2000/svg" width="300" height="300" fill="none" viewBox="0 0 500 500">
  <path fill="#E0E0E0" d="M309.371 47.201a1.555 1.555 0 0 1-.015-.234l-.016-.66-.037-2.533-.083-9.444.151.151-48.65.097c.11-.11-.25.247.245-.248v3.293l-.001 3.248-.004 6.331-.242-.242 34.671.11 10.234.069 2.767.032.724.016c.165.003.251.008.256.014.005.005-.071.011-.225.016l-.694.016-2.715.032-10.178.069-34.84.11-.242.001v-.243l-.004-6.331-.001-3.248V34.33c.496-.496.139-.138.251-.248l48.65.097h.152l-.001.151-.083 9.534-.037 2.499-.016.634c-.006.14-.011.209-.017.204Z"/>
  <path fill="#E0E0E0" d="M315.968 34.33a1.506 1.506 0 0 1-.019-.245l-.019-.682-.044-2.581-.096-9.363.178.178-29.23.07c-.223.221.299-.302.246-.247v1.683l-.001 1.669-.002 3.276-.009 6.241-.236-.236 20.911.112 6.091.065 1.643.03c.377.01.577.02.587.03.01.01-.172.019-.531.029l-1.594.03-6.038.065-21.07.112-.236.001v-.237l-.009-6.241-.002-3.276-.001-1.669V21.46c-.054.052.47-.471.25-.249l29.23.07h.18l-.002.178-.096 9.472-.044 2.541c-.012.575-.025.87-.037.858Z"/>
  <path fill="#F5F5F5" d="M466.798 201.655h-48.653v12.871h48.653v-12.871Z"/>
  <path fill="#E0E0E0" d="M446.225 228.083a1.555 1.555 0 0 1-.015-.234l-.016-.66-.036-2.533-.083-9.444.151.151-48.65.097c.11-.11-.25.247.245-.247v3.293l-.001 3.248-.004 6.331-.242-.242 34.671.11 10.234.069 2.767.032.724.016c.163.002.25.007.255.013.005.005-.071.01-.225.016l-.694.016-2.715.032-10.178.069-34.84.11-.242.001v-.243l-.004-6.331-.001-3.248v-3.293c.496-.496.139-.138.251-.248l48.65.097h.152l-.001.151-.083 9.533-.037 2.499-.016.634c-.007.141-.012.21-.017.205Zm-2.037-120.478a1.555 1.555 0 0 1-.015-.234l-.016-.66-.037-2.533-.083-9.444.151.151-48.65.097c.11-.11-.25.247.245-.248v3.293l-.001 3.248-.004 6.331-.242-.242 34.671.11 10.234.069 2.767.032.724.015c.164.004.251.009.256.015.005.005-.071.01-.225.016l-.694.016-2.715.032-10.178.069-34.84.11-.242.001v-.243l-.004-6.331-.001-3.248v-3.293c.496-.496.139-.138.251-.248l48.65.097h.152l-.001.151-.083 9.534-.037 2.499-.016.634c-.007.14-.012.209-.017.204Z"/>
  <path fill="#E0E0E0" d="M450.785 94.734a1.506 1.506 0 0 1-.019-.245l-.019-.682-.044-2.581-.096-9.363.178.178-29.23.07c-.223.221.299-.302.246-.247v1.682l-.001 1.669-.002 3.276-.009 6.241-.236-.236 20.911.112 6.091.065 1.643.03c.376.011.577.021.587.031.01.01-.172.019-.531.029l-1.594.03-6.038.065-21.07.112-.236.001v-.237l-.009-6.241-.002-3.276-.001-1.669v-1.682c-.054.052.47-.471.25-.249l29.23.07h.18l-.002.178-.096 9.472-.044 2.541c-.013.573-.025.868-.037.856ZM72.838 118.046a1.555 1.555 0 0 1-.015-.234l-.016-.66-.037-2.533-.083-9.444.151.151-48.65.097c.11-.11-.25.247.245-.248v3.292l-.001 3.248-.004 6.331-.242-.242 34.671.11 10.234.069 2.767.032.724.016c.164.005.25.01.256.015.005.005-.071.01-.225.016l-.694.016-2.715.032-10.178.069-34.84.11-.242.001v-.243l-.004-6.331-.001-3.248v-3.293c.496-.496.139-.137.251-.248l48.65.097h.152l-.001.151-.083 9.534-.037 2.499-.016.634c-.007.14-.012.209-.017.204Z"/>
  <path fill="#E0E0E0" d="M79.434 105.175a1.506 1.506 0 0 1-.019-.245l-.019-.682-.044-2.581-.096-9.363.178.178-29.23.07c-.223.221.299-.302.246-.247v1.684l-.001 1.669-.002 3.276-.009 6.241-.236-.236 20.911.112 6.091.065 1.643.03c.377.01.577.019.587.029.01.01-.172.019-.531.029l-1.594.03-6.037.065-21.07.112-.236.001v-.237l-.009-6.241-.002-3.276-.001-1.669v-1.684c-.054.052.47-.471.25-.249l29.23.07.18.001-.002.178-.096 9.472-.044 2.541c-.013.574-.025.87-.038.857Z"/>
  <path fill="#EBEBEB" d="M431.853 43.508H68.147V370.04h363.706V43.508Z"/>
  <path fill="#FAFAFA" d="M413.549 59.94H86.45v293.667h327.099V59.94Z"/>
  <path fill="#E0E0E0" d="M431.853 370.04s-.112-.083-.319-.261l-.921-.802-3.574-3.161-13.581-12.106-.046-.041v-.062l-.122-134.527.076-112.534.083-34.102.049-9.272.026-2.411c.009-.543.027-.821.027-.821s.018.278.027.821l.026 2.411.049 9.272.083 34.102.076 112.534-.122 134.527-.046-.103 13.494 12.202 3.527 3.214.896.829c.197.189.292.291.292.291Z"/>
  <path fill="#fff" d="M86.45 257.165c4.336-1.239 116.328-60.709 118.806-67.523 2.478-6.814 6.195-129.701 6.195-129.701h-125l-.001 197.224Z" opacity=".4"/>
  <path fill="#E0E0E0" d="M431.853 43.508s-.388.379-1.17 1.096l-3.491 3.178-13.557 12.253-.036.033h-.049l-163.54.133-163.559-.133h-.049l-.036-.033-13.557-12.253-3.491-3.178a56.935 56.935 0 0 1-1.17-1.096s.418.345 1.215 1.045l3.535 3.13 13.638 12.163-.085-.033 163.559-.133 163.54.133-.085.033 13.638-12.163 3.535-3.13c.797-.7 1.215-1.045 1.215-1.045Z"/>
  <path fill="#E0E0E0" d="M86.45 59.94s.018.278.027.822l.026 2.412.049 9.273.083 34.104.076 112.515-.122 134.542v.062l-.046.041-13.581 12.106-3.574 3.161-.921.802c-.208.178-.319.261-.319.261s.095-.102.294-.289l.896-.829 3.526-3.214 13.494-12.203-.046.103-.122-134.542.076-112.515.083-34.104.049-9.273.026-2.412c.008-.544.026-.823.026-.823Z"/>
  <path fill="#fff" d="M105.603 50.846a4.255 4.255 0 1 1-7.988 2.934 4.255 4.255 0 0 1 7.988-2.934Zm25.874 0a4.255 4.255 0 1 1-7.988 2.934 4.255 4.255 0 0 1 7.988-2.934Zm25.875 0a4.255 4.255 0 1 1-7.988 2.934 4.255 4.255 0 0 1 7.988-2.934Zm25.875 0a4.255 4.255 0 1 1-7.988 2.934 4.255 4.255 0 0 1 7.988-2.934Zm25.875 0a4.255 4.255 0 1 1-7.988 2.934 4.255 4.255 0 0 1 7.988-2.934Zm25.874 0a4.255 4.255 0 1 1-7.988 2.934 4.255 4.255 0 0 1 7.988-2.934Zm25.875 0a4.255 4.255 0 1 1-7.988 2.934 4.255 4.255 0 0 1 7.988-2.934Zm25.875 0a4.255 4.255 0 1 1-7.988 2.934 4.255 4.255 0 0 1 7.988-2.934Zm25.874 0a4.255 4.255 0 1 1-7.988 2.934 4.255 4.255 0 0 1 7.988-2.934Zm25.875 0a4.255 4.255 0 1 1-7.988 2.934 4.255 4.255 0 0 1 7.988-2.934Zm25.875 0a4.255 4.255 0 1 1-7.988 2.934 4.255 4.255 0 0 1 7.988-2.934Zm25.875 0a4.255 4.255 0 1 1-7.988 2.934 4.255 4.255 0 0 1 7.988-2.934Zm25.874 0a4.255 4.255 0 1 1-7.988 2.934 4.255 4.255 0 0 1 7.988-2.934ZM105.603 359.115a4.255 4.255 0 1 1-7.988 2.934 4.255 4.255 0 0 1 7.988-2.934Zm25.874 0a4.255 4.255 0 1 1-7.988 2.934 4.255 4.255 0 0 1 7.988-2.934Zm25.875 0a4.255 4.255 0 1 1-7.988 2.934 4.255 4.255 0 0 1 7.988-2.934Zm25.875 0a4.255 4.255 0 1 1-7.988 2.934 4.255 4.255 0 0 1 7.988-2.934Zm25.875 0a4.255 4.255 0 1 1-7.988 2.934 4.255 4.255 0 0 1 7.988-2.934Zm25.874 0a4.255 4.255 0 1 1-7.988 2.934 4.255 4.255 0 0 1 7.988-2.934Zm25.875 0a4.255 4.255 0 1 1-7.988 2.934 4.255 4.255 0 0 1 7.988-2.934Zm25.875 0a4.255 4.255 0 1 1-7.988 2.934 4.255 4.255 0 0 1 7.988-2.934Zm25.874 0a4.255 4.255 0 1 1-7.988 2.934 4.255 4.255 0 0 1 7.988-2.934Zm25.875 0a4.255 4.255 0 1 1-7.988 2.934 4.255 4.255 0 0 1 7.988-2.934Zm25.875 0a4.255 4.255 0 1 1-7.988 2.934 4.255 4.255 0 0 1 7.988-2.934Zm25.875 0a4.255 4.255 0 1 1-7.988 2.934 4.255 4.255 0 0 1 7.988-2.934Zm25.874 0a4.255 4.255 0 1 1-7.988 2.934 4.255 4.255 0 0 1 7.988-2.934Zm8.069-288.331a4.255 4.255 0 1 1-2.934-7.988 4.255 4.255 0 0 1 2.934 7.988Zm0 25.875a4.255 4.255 0 1 1-2.934-7.988 4.255 4.255 0 0 1 2.934 7.988Zm0 25.875a4.255 4.255 0 1 1-2.934-7.988 4.255 4.255 0 0 1 2.934 7.988Zm0 25.874a4.255 4.255 0 1 1-2.934-7.988 4.255 4.255 0 0 1 2.934 7.988Zm0 25.875a4.255 4.255 0 1 1-2.934-7.988 4.255 4.255 0 0 1 2.934 7.988Zm0 25.875a4.255 4.255 0 1 1-2.934-7.988 4.255 4.255 0 0 1 2.934 7.988Zm0 25.875a4.255 4.255 0 1 1-2.934-7.988 4.255 4.255 0 0 1 2.934 7.988Zm0 25.874a4.255 4.255 0 1 1-2.934-7.988 4.255 4.255 0 0 1 2.934 7.988Zm0 25.875a4.255 4.255 0 1 1-2.934-7.988 4.255 4.255 0 0 1 2.934 7.988Zm0 25.875a4.255 4.255 0 1 1-2.934-7.988 4.255 4.255 0 0 1 2.934 7.988Zm0 25.875a4.255 4.255 0 1 1-2.934-7.988 4.255 4.255 0 0 1 2.934 7.988Zm0 25.874a4.255 4.255 0 1 1-2.934-7.988 4.255 4.255 0 0 1 2.934 7.988ZM78.766 70.784a4.255 4.255 0 1 1-2.934-7.988 4.255 4.255 0 0 1 2.934 7.988Zm0 25.875a4.255 4.255 0 1 1-2.934-7.988 4.255 4.255 0 0 1 2.934 7.988Zm0 25.875a4.255 4.255 0 1 1-2.934-7.988 4.255 4.255 0 0 1 2.934 7.988Zm0 25.874a4.255 4.255 0 1 1-2.934-7.988 4.255 4.255 0 0 1 2.934 7.988Zm0 25.875a4.255 4.255 0 1 1-2.934-7.988 4.255 4.255 0 0 1 2.934 7.988Zm0 25.875a4.255 4.255 0 1 1-2.934-7.988 4.255 4.255 0 0 1 2.934 7.988Zm0 25.875a4.255 4.255 0 1 1-2.934-7.988 4.255 4.255 0 0 1 2.934 7.988Zm0 25.874a4.255 4.255 0 1 1-2.934-7.988 4.255 4.255 0 0 1 2.934 7.988Zm0 25.875a4.255 4.255 0 1 1-2.934-7.988 4.255 4.255 0 0 1 2.934 7.988Zm0 25.875a4.255 4.255 0 1 1-2.934-7.988 4.255 4.255 0 0 1 2.934 7.988Zm0 25.875a4.255 4.255 0 1 1-2.934-7.988 4.255 4.255 0 0 1 2.934 7.988Zm0 25.874a4.255 4.255 0 1 1-2.934-7.988 4.255 4.255 0 0 1 2.934 7.988Z"/>
  <path fill="#E0E0E0" d="M380.162 102.378s-.189.218-.576.625l-1.728 1.799-6.68 6.882c-2.9 2.988-6.46 6.634-10.625 10.835-4.161 4.205-8.878 9.014-14.158 14.264-10.514 10.547-23.139 22.999-37.262 36.72a3657.912 3657.912 0 0 1-46.402 44.163 3656.87 3656.87 0 0 1-47.248 43.28c-14.657 13.152-27.945 24.896-39.188 34.663-5.599 4.908-10.72 9.285-15.2 13.148a1440.4 1440.4 0 0 1-11.535 9.858l-7.322 6.193-1.913 1.6c-.433.358-.663.532-.663.532s.207-.201.629-.572l1.879-1.64 7.258-6.267 11.477-9.924 15.147-13.205c11.21-9.801 24.471-21.572 39.109-34.742a3969.935 3969.935 0 0 0 47.214-43.304 3962.144 3962.144 0 0 0 46.423-44.127c14.139-13.7 26.79-26.123 37.335-36.636l14.211-14.208 10.688-10.772 6.75-6.813 1.765-1.763c.401-.396.615-.589.615-.589Zm-49.973 16.185c.099.104-17.321 16.951-38.905 37.625-21.591 20.681-39.169 37.357-39.269 37.253-.1-.104 17.317-16.948 38.908-37.629 21.585-20.674 39.166-37.353 39.266-37.249Zm-38.453 110.652c.006.007-.068.084-.217.229l-.672.634-2.616 2.399a256.378 256.378 0 0 0-4.13 3.805c-1.599 1.495-3.435 3.18-5.419 5.093-8.007 7.574-18.778 18.337-30.591 30.31-11.817 11.977-22.637 22.707-30.714 30.217-2.001 1.896-3.856 3.564-5.475 5.039a191.745 191.745 0 0 1-4.191 3.741l-2.682 2.326-.706.595c-.161.132-.246.196-.252.189-.006-.007.068-.084.217-.229l.672-.634 2.616-2.399a255.782 255.782 0 0 0 4.13-3.804c1.599-1.495 3.435-3.18 5.419-5.093 8.007-7.574 18.779-18.338 30.596-30.315 11.813-11.973 22.632-22.702 30.709-30.212 2.001-1.897 3.856-3.564 5.475-5.04a191.526 191.526 0 0 1 4.192-3.741l2.682-2.327.706-.595c.16-.13.245-.195.251-.188Z"/>
  <path fill="#F5F5F5" d="M473.052 423.523h-48.653v12.871h48.653v-12.871Z"/>
  <path fill="#E0E0E0" d="M452.479 449.951a1.555 1.555 0 0 1-.015-.234l-.016-.66-.036-2.533-.083-9.444.151.151-48.65.097c.11-.11-.25.247.245-.247v3.293l-.001 3.248-.004 6.331-.242-.242 34.671.11 10.234.069 2.767.032.724.016c.163.003.25.008.255.013.005.005-.071.01-.225.016l-.694.016-2.715.032-10.178.069-34.84.11-.242.001v-.243l-.004-6.331-.001-3.248v-3.293c.496-.496.139-.138.251-.248l48.65.097h.152l-.001.151-.083 9.534-.037 2.499-.016.634c-.007.14-.012.209-.017.204Z"/>
  <path fill="#F5F5F5" d="M88.088 406.36H39.435v12.871h48.653V406.36Z"/>
  <path fill="#E0E0E0" d="M67.515 432.788a1.555 1.555 0 0 1-.015-.234l-.016-.66-.037-2.533-.083-9.444.151.151-48.65.097c.11-.11-.25.247.245-.247v3.293l-.001 3.248-.004 6.331-.242-.242 34.671.11 10.234.069 2.767.032.724.016c.164.003.251.008.256.013.005.005-.071.01-.225.016l-.694.016-2.715.032-10.178.069-34.84.11-.242.001v-.243l-.004-6.331-.001-3.248v-3.293c.496-.496.139-.137.251-.248l48.65.097h.152l-.001.151-.083 9.533-.037 2.499-.016.634c-.007.141-.012.21-.017.205Z"/>
  <path fill="#263238" d="M482.397 469.352c0 .144-104.056.26-232.386.26-128.375 0-232.408-.117-232.408-.26 0-.143 104.034-.26 232.408-.26 128.33-.001 232.386.116 232.386.26Z"/>
  <path fill="#FFBF9D" d="m286.256 263.958-21.471 39.858-4.308-46.642-19.802 16.337s-3.026 50.932 1.056 64.935c4.083 14.003 24.21 17.52 34.993 4.455 4.959-6.009 34.369-60.062 34.369-60.062l-24.837-18.881Z"/>
  <path fill="#FFBF9D" d="M256.914 240.261s-8.652-15.655-11.655-19.721c-3.003-4.067-6.571-3.238-6.806.951-.235 4.189 1.6 7.625 1.6 7.625s-.537-1.798-4.001.283c-3.464 2.08-1.016 8.811-1.016 8.811s-1.647-2.918-3.332 3.088c0 0-2.88-.828-2.523 4.669.358 5.497 11.838 23.266 11.838 23.266l-.508 10.587 19.657-16.538 4.318-19.327-7.572-3.694Z"/>
  <path fill="#FFBF9D" d="M233.454 243.032c.626 1.223 4.824 8.539 3.031 11.73-1.793 3.191-3.715-.1-5.317-2.367-1.602-2.267-2.823-6.932-2.823-6.932s-.317-3.894 2.565-3.847c1.115.019 2.544 1.416 2.544 1.416Z"/>
  <path fill="#455A64" d="M229.792 246.906c.236.121.49.236.77.344 3.563 1.35 8.348-.32 11.322-4.18 1.815-2.352 2.57-5.028 2.311-7.362-.001-.002.988-4.799 7.072-10.643.409-.393.915-.901 1.504-1.509.166.809.317 1.493.448 2.028 1.941 7.906.109 12.487.108 12.489-1.529 1.873-2.377 4.526-2.14 7.406.439 5.299 4.374 9.34 8.787 9.031 4.416-.312 7.64-4.862 7.201-10.16-.258-3.117-1.732-5.792-3.795-7.41-4.92-3.834-4.41-7.744-5.189-11.75-.141-.725-.567-2.982-1.168-6.184 11.026-12.085 31.163-35.85 29.55-38.616 0 0-19.211 20.467-30.668 32.658a77692.517 77692.517 0 0 1-7.955-42.552c-2.923 1.6 1.022 31.439 3.711 47.068a1703.625 1703.625 0 0 1-3.905 4.145c-2.909 3.06-5.182 7.299-11.538 8.242-2.672.402-5.43 1.99-7.395 4.54-2.852 3.699-3.097 8.199-.86 10.91.068.091.138.179.212.264-1.817 1.404-4.391 2.013-6.579 1.021-1.201-.545-2.225 1.13-1.018 1.678 3.095 1.405 6.707.632 9.214-1.458Zm35.693-2.436c.347 4.179-2.195 7.764-5.677 8.012-3.48.247-6.583-2.943-6.93-7.123-.345-4.179 2.197-7.763 5.676-8.01 3.482-.247 6.588 2.942 6.931 7.121Zm-34.897.494c-2.847-1.87-3.017-6.153-.388-9.569 2.631-3.415 7.073-4.667 9.919-2.797 2.843 1.868 3.019 6.152.386 9.564-2.634 3.417-7.074 4.669-9.917 2.802Z"/>
  <path fill="#263238" d="M255.922 219.395a1.713 1.713 0 1 0-3.28-.989 1.713 1.713 0 0 0 3.28.989Z"/>
  <path fill="#000" d="m257.287 211.577 2.858-.44s16.378-17.764 18.644-20.316c2.266-2.551 7.783-10.431 7.783-10.431l-29.285 31.187Z" opacity=".2"/>
  <path fill="#FFBF9D" d="M253.623 248.39c-1.51-4.396 5.289-8.826 5.289-8.826s-2.367-4.259-1.79-8.758c.737-5.747 3.566-4.271 3.566-4.271s5.9 9.049 5.335 13.944c-.565 4.895-5.106 11.666-5.106 11.666s-5.153 2.477-7.294-3.755Zm-12.412-15.979c.706 1.378 5.838 8.796 3.816 12.394-2.022 3.598-4.189-.113-5.994-2.669-1.806-2.556-4.727-7.087-4.727-7.087s-1.052-4.948 2.189-5.192c3.241-.244 4.716 2.554 4.716 2.554Z"/>
  <path fill="#FFBF9D" d="M238.175 239.468c.706 1.379 5.488 7.873 3.467 11.47-2.021 3.598-4.122-.161-5.995-2.669-4.847-6.49-4.788-6.955-4.788-6.955s-1.709-3.842 2.25-5.324c3.044-1.139 5.066 3.478 5.066 3.478Z"/>
  <path fill="#FF9A6C" d="M235.864 236.708c.021-.019.359.286.894.91a20.944 20.944 0 0 1 2.03 2.825 23.334 23.334 0 0 1 2.153 4.697c.304.927.564 1.92.759 2.964.183 1.012.41 2.247-.251 3.353-.326.518-.844.945-1.482 1.051-.648.107-1.262-.202-1.671-.575-.426-.374-.737-.809-1.044-1.204l-.898-1.184a110.06 110.06 0 0 1-2.985-4.183 75.792 75.792 0 0 1-1.886-2.906c-.427-.698-.643-1.096-.614-1.115.031-.02.304.341.783 1.003l2.018 2.806c.856 1.181 1.89 2.577 3.066 4.105.602.737 1.182 1.628 1.894 2.293.361.322.81.523 1.255.449.444-.071.861-.397 1.122-.816.53-.859.376-1.982.19-2.984a23.856 23.856 0 0 0-.714-2.91 25.024 25.024 0 0 0-2.014-4.659c-1.43-2.529-2.684-3.856-2.605-3.92Z"/>
  <path fill="#FF9A6C" d="M239.82 230.853c.024-.024.323.222.816.716a19.82 19.82 0 0 1 1.922 2.252 16.992 16.992 0 0 1 2.138 3.854c.602 1.551 1.014 3.387.925 5.329-.018.479-.066.984-.254 1.462-.173.476-.598.942-1.143 1.044-.544.106-1.037-.086-1.433-.304-.402-.224-.742-.512-1.05-.783a20.864 20.864 0 0 1-3-3.219 18.899 18.899 0 0 1-1.595-2.494c-.323-.62-.463-.981-.434-.996.08-.046.77 1.342 2.32 3.263a22.671 22.671 0 0 0 3.022 3.082c.592.509 1.337 1.079 2.063.952.74-.147.973-1.135.984-2.03.085-1.855-.294-3.623-.854-5.136-.562-1.518-1.303-2.792-1.99-3.812-1.398-2.033-2.506-3.117-2.437-3.18Zm14.396 15.412c-.03-.002-.05-.236-.013-.66a6.613 6.613 0 0 1 .434-1.755c.528-1.423 1.859-3.319 4.095-4.319l-.125.359-.236-.468a14.77 14.77 0 0 1-1.479-6.144c-.022-1.629.226-2.612.282-2.601.086.009-.029 1 .086 2.584.114 1.576.517 3.764 1.579 5.934l.227.452.125.249-.25.111c-2.08.92-3.386 2.655-3.974 3.982-.614 1.346-.658 2.29-.751 2.276Zm8.722 82.607c-.074-.019.225-1.407.707-3.647.468-2.241 1.128-5.338 1.453-8.804.319-3.468.169-6.628-.016-8.906-.196-2.279-.38-3.686-.298-3.699.035-.006.12.34.243.971.13.63.271 1.55.42 2.69.281 2.28.491 5.479.169 8.991-.329 3.509-1.053 6.616-1.613 8.84a65.153 65.153 0 0 1-.724 2.622c-.186.616-.306.951-.341.942Z"/>
  <path fill="#000" d="m255.904 213.049 1.118 5.957 1.648-1.818-2.088-4.861-.678.722Z" opacity=".3"/>
  <path fill="#263238" d="M253.633 227.446c-.136.03-.869-2.648-1.542-6.005-.683-3.358-.96-6.131-.814-6.149.14-.018.644 2.7 1.325 6.047.67 3.347 1.175 6.075 1.031 6.107Zm70.538-77.574s-8.892 33.244-9.657 56.767l-.255 7.837s19.619 16.291 36.076 17.294l13.792-33.917-39.956-47.981Z"/>
  <path fill="#263238" d="M411.317 170.263c-3.75-16.215-5.191-35.087-18.674-45.66-10.005-7.845-21.406-10.033-34.11-9.501-6.255.261-13.319 3.148-18.766 6.232-7.47 4.229-10.634 12.805-14.239 20.595-7.221 15.608-6.306 36.743-1.416 42.618l65.223 34.443c13.024-6.778 21.183-9.478 23.264-26.838.877-7.306.377-14.72-1.282-21.889Z"/>
  <path fill="#FFBF9D" d="m391.949 137.489-41.047-12.111c-13.223-1.927-22.694 14.074-24.059 27.367-1.516 14.768-2.783 32.857-1.464 43.972 2.653 22.35 19.565 25.847 19.565 25.847.008-.074.04.334-.093 6.937l-1.628 12.699c-.175 4.326 2.162 6.681 4.808 10.108 6.054 7.843 18.499 11.686 30.098 4.077 8.374-5.493 8.114-39.132 8.691-46.777l11.806-63.921a7.816 7.816 0 0 0-6.677-8.198Z"/>
  <path fill="#263238" d="M333.515 173.411c-.112 1.502 1.067 2.836 2.634 2.982 1.563.146 2.924-.95 3.037-2.453.113-1.502-1.067-2.837-2.63-2.983-1.567-.146-2.929.952-3.041 2.454Zm-3.955-7.273c.338.385 2.559-1.127 5.625-.999 3.064.085 5.251 1.751 5.599 1.388.17-.16-.164-.844-1.115-1.596-.936-.748-2.555-1.503-4.464-1.57-1.91-.065-3.544.575-4.495 1.258-.972.687-1.318 1.346-1.15 1.519Zm31.732 7.687c-.112 1.502 1.067 2.836 2.634 2.982 1.564.146 2.924-.95 3.038-2.453.112-1.502-1.068-2.838-2.631-2.983-1.568-.147-2.929.952-3.041 2.454Zm-1.579-7.326c.34.385 2.563-1.126 5.626-.997 3.063.084 5.251 1.75 5.599 1.387.169-.16-.161-.843-1.116-1.596-.936-.749-2.553-1.504-4.463-1.571-1.91-.064-3.543.575-4.495 1.258-.969.687-1.317 1.346-1.151 1.519Zm-11.939 19.875c.021-.174-1.872-.578-4.944-1.095-.779-.111-1.514-.296-1.625-.835-.163-.574.198-1.404.614-2.3l2.55-5.869c3.548-8.359 6.15-15.246 5.812-15.385-.338-.14-3.489 6.522-7.037 14.882-.855 2.062-1.674 4.028-2.453 5.908-.332.878-.881 1.867-.527 3.056.188.593.746 1.04 1.242 1.195.496.173.936.199 1.322.237 3.099.29 5.027.38 5.046.206Z"/>
  <path fill="#FF9A6C" d="M344.857 222.564s14.905 1.552 30.06-6.764c0 0-7.966 15.254-30.115 12.3l.055-5.536Zm12.858-29.379c-.742-1.32-2.149-2.053-3.616-2.159-2.114-.152-3.917.504-5.369 2.402-.492.546-.513 2.139-.336 2.585.177.448.035.226.365.542 1.195 1.141 2.458 2.284 4.033 2.726 1.574.441 3.548.006 4.648-1.506.976-1.343 1.017-3.271.275-4.59Z"/>
  <path fill="#263238" d="M357.26 188.982c-.496-.051-.653 3.275-3.606 5.507-2.949 2.241-6.478 1.708-6.525 2.171-.056.207.76.682 2.255.79 1.466.117 3.631-.258 5.438-1.624 1.803-1.369 2.637-3.268 2.811-4.628.189-1.384-.144-2.225-.373-2.216Zm1.348-32.306c.387.798 3.393.089 7.017.15 3.626-.013 6.621.735 7.02-.058.175-.378-.409-1.106-1.66-1.789-1.24-.682-3.165-1.252-5.339-1.269-2.174-.012-4.105.533-5.354 1.199-1.261.667-1.854 1.387-1.684 1.767Zm-28.987-.086c.634.667 2.959-.165 5.793-.332 2.828-.255 5.259.223 5.777-.531.226-.365-.185-1.044-1.265-1.654-1.064-.608-2.819-1.064-4.766-.92-1.946.147-3.604.856-4.557 1.616-.968.761-1.263 1.493-.982 1.821Zm21.139-33.607c-.038.16-.068.322-.104.482l.077.032.027-.514Z"/>
  <path fill="#263238" d="M379.457 231.532c.628-5.825-1.715-11.675-1.036-17.494.721-6.168 4.717-11.455 6.356-17.445 2.626-9.593-.978-19.795-2.297-29.709-5.558-.686-10.744-4.024-14.447-8.34-4.455-5.194-7.149-11.63-9.773-17.951a30.056 30.056 0 0 0 6.044 17.266c-2.467.515-5.069-.541-6.923-2.249-1.854-1.708-3.066-3.995-4.064-6.31-2.415-5.607-3.726-11.671-3.935-17.772-.82 8.728.149 17.626 2.904 25.95-1.555-.48-3.221-.049-4.832.184-1.611.233-3.457.187-4.595-.976-.761-.778-1.038-1.897-1.259-2.962a66.562 66.562 0 0 1-.738-22.609c-1.982 4.058-3.946 8.161-5.096 12.529-1.149 4.367-1.447 9.061-.094 13.369-.639.812-2 .684-2.76-.017-.76-.701-1.048-1.77-1.208-2.791-.585-3.732.074-7.534.732-11.254-2.221 3.937-2.958 8.506-4.187 12.856-1.229 4.351-3.185 8.813-6.965 11.291-.655-6.509-.423-10.954.555-17.048.747-4.658 2.957-9.278 4.997-13.531 2.285-4.764 5.46-9.43 9.008-12.538 6.546-5.733 9.282-3.265 13.462-1.08l.494.207c.015-.102.02-.205.034-.308l.188-.89c10.88-2.45 22.418-1.912 33.021 1.545 7.88 2.568 8.603 19.534 10.525 11.472 1.163-4.878 7.486-.425 7.564-.285 9.293 16.763 19.144 43.354 19.596 85.371l-41.271 11.519Z"/>
  <path fill="#E0E0E0" d="M400.341 218.174c-.094-.061.861-1.421 2.183-4.092 1.315-2.663 2.908-6.717 3.76-11.962.827-5.222.799-11.697-1.241-18.404-2.017-6.72-6.303-13.323-11.671-19.394-5.376-6.102-11.148-11.334-16.03-16.488-4.895-5.137-8.865-10.221-11.54-14.904-2.671-4.687-4.061-8.881-4.628-11.834-.276-1.481-.443-2.635-.473-3.428-.06-.789-.074-1.202-.039-1.205.122-.013.2 1.651.895 4.547.678 2.894 2.149 6.983 4.861 11.56 2.717 4.574 6.695 9.552 11.596 14.622 4.884 5.084 10.687 10.304 16.116 16.465 5.421 6.129 9.784 12.884 11.802 19.789 2.04 6.885 1.987 13.495 1.056 18.79-.958 5.32-2.679 9.39-4.115 12.024-.735 1.313-1.334 2.313-1.806 2.951-.449.652-.698.983-.726.963Z"/>
  <path fill="#263238" d="M344.314 232.732c.211-.868-35.535 7.333-35.535 7.333s-14.684 61.139-16.341 71.314c-1.656 10.175 5.663 68.287 5.663 68.287l-5.008 25.701 119.884-5.949-12.627-26.346 10.066-71.335 6.226-56.316-30.263-13.65s-5.307 9.363-16.801 12.945c-7.375 2.299-18.343 4.871-23.466-1.343-1.92-2.329-2.724-6.822-1.798-10.641Z"/>
  <path fill="#263238" d="M295.756 295.649c-.585-.146-23.595-10.031-23.595-10.031s17.985-29.166 21.12-34.342c6.896-11.386 20.103-12.122 20.103-12.122l-8.471 31.538c-.223 1.023-9.157 24.957-9.157 24.957Z"/>
  <path fill="#FF725E" d="M312.682 279.928c.063-.845 21.181-45.028 21.181-45.028s-4.665-1.612-7.969 1.311c-3.303 2.923-20.81 41.92-20.81 41.92l7.598 1.797Zm62.633 12.453s13.032-48.266 23.878-55.673c0 0 5.177 1.526 6.23 3.408 0 0-17.365 37.392-21.728 53.921l-8.38-1.656Z"/>
  <path fill="#FF725E" d="m386.319 317.995-2.116-25.36-81.061-15.177s-10.08 18.646-12.256 34.796 4.827 69.802 4.827 69.802-15.359 67.095-19.333 87.297h152.607c-.186 0-2.745-40.41-21.203-78.056l-18.726-42.332-2.739-30.97Z"/>
  <path fill="#000" d="M367.115 311.762c-17.671 10.22-38.186 17.961-57.986 22.927l-.98 3.56c5.484 8.586 15.284 14.255 25.461 14.729 10.177.474 19.2 1.662 24.085-7.279 5.363-9.815 10.009-24.182 9.42-33.937Z" opacity=".3"/>
  <path fill="#FF725E" d="M308.743 298.102s-10.601 34.406 2.35 42.674 34.674 10.266 42.1 4.093c8.174-6.794 15.226-33.585 13.848-35.514-1.378-1.928-58.298-11.253-58.298-11.253Z"/>
  <path fill="#263238" d="M308.743 298.102c-.009-.008.168.008.482.052l1.406.206 5.397.851c4.684.757 11.457 1.876 19.814 3.334 4.178.731 8.753 1.546 13.655 2.468 4.898.952 10.144 1.884 15.592 3.315.34.095.68.197 1.02.313.349.138.662.193 1.052.497.179.197.23.44.251.62.038.198.036.382.039.568.003.372-.02.736-.058 1.098-.149 1.448-.428 2.88-.744 4.319a95.885 95.885 0 0 1-2.4 8.679 96.483 96.483 0 0 1-3.285 8.731c-1.268 2.893-2.707 5.781-4.562 8.47-.941 1.331-1.982 2.609-3.277 3.622-1.302 1.005-2.793 1.686-4.309 2.178-3.05.968-6.199 1.26-9.262 1.302-6.142.033-12.028-1.016-17.402-2.683-2.683-.853-5.248-1.861-7.631-3.067a41.075 41.075 0 0 1-3.436-1.941c-1.078-.741-2.097-1.577-2.837-2.614-1.575-2.008-2.408-4.365-2.935-6.626-.522-2.275-.731-4.509-.807-6.635-.122-4.258.261-8.1.731-11.439.47-3.342 1.057-6.19 1.579-8.505a99.422 99.422 0 0 1 1.351-5.296l.409-1.361c.099-.3.162-.465.167-.456.005.009-.029.158-.112.471l-.359 1.374a129.372 129.372 0 0 0-1.255 5.312 110.19 110.19 0 0 0-1.489 8.501c-.442 3.331-.796 7.161-.652 11.386.087 2.109.305 4.319.83 6.556.528 2.223 1.357 4.524 2.884 6.452.719 1 1.696 1.79 2.735 2.503a41.054 41.054 0 0 0 3.404 1.908c2.362 1.187 4.906 2.179 7.569 3.019 5.331 1.641 11.179 2.671 17.253 2.631 3.027-.044 6.136-.339 9.108-1.285 1.477-.479 2.915-1.142 4.147-2.094 1.229-.96 2.249-2.205 3.171-3.511 1.823-2.641 3.253-5.506 4.514-8.378a96.712 96.712 0 0 0 3.275-8.681 96.538 96.538 0 0 0 2.399-8.629c.316-1.426.595-2.85.742-4.259.038-.351.06-.704.058-1.045.006-.329-.039-.719-.146-.852-.168-.138-.56-.276-.865-.384a18.766 18.766 0 0 0-.995-.307c-5.398-1.431-10.656-2.384-15.542-3.353-4.897-.94-9.466-1.775-13.639-2.529l-19.783-3.496-5.38-.948-1.397-.257c-.32-.06-.466-.097-.475-.105Zm85.935 88.779c.003.018-.22.067-.647.146l-1.868.318c-1.624.259-3.971.652-6.866 1.165a333.48 333.48 0 0 0-22.46 4.778 333.437 333.437 0 0 0-22.067 6.364c-2.795.912-5.05 1.669-6.605 2.206l-1.797.599c-.413.132-.633.193-.639.176-.006-.017.202-.111.603-.274l1.764-.692c1.534-.596 3.774-1.407 6.557-2.365 5.565-1.918 13.339-4.334 22.058-6.52 8.717-2.177 16.713-3.707 22.525-4.636 2.906-.466 5.264-.805 6.898-1.002l1.882-.221c.432-.045.659-.06.662-.042Zm2.785 1.26c.006.017-.194.112-.58.278l-1.698.702c-1.48.592-3.613 1.474-6.234 2.593a258.975 258.975 0 0 0-20.071 9.62 258.972 258.972 0 0 0-19.144 11.362 305.776 305.776 0 0 0-5.616 3.747l-1.525 1.023c-.352.229-.542.342-.553.328-.011-.015.159-.156.492-.413l1.47-1.103c1.279-.955 3.166-2.287 5.529-3.888 4.723-3.206 11.417-7.397 19.102-11.514 7.686-4.107 14.887-7.35 20.175-9.501 2.643-1.077 4.799-1.908 6.303-2.442l1.734-.611c.398-.135.61-.197.616-.181Zm-13.07-96.565c.06.016-.142 1.155-.708 2.942-.303.893-.659 1.937-1.309 3.049a5.153 5.153 0 0 1-1.408 1.442c-.566.409-1.348.671-2.106.62-1.541-.054-2.848-1.056-3.416-2.217-.603-1.158-.669-2.355-.591-3.292.081-.948.273-1.685.408-2.189.14-.504.239-.776.274-.768.102.016-.21 1.152-.314 2.978-.03.904.079 2.012.645 3.044.537 1.032 1.673 1.872 3.016 1.925 1.335.089 2.435-.874 3.092-1.807.615-1.001 1.027-2.055 1.362-2.906.647-1.735.976-2.844 1.055-2.821Zm-71.234-12.261c.034.013-.047.318-.215.861-.172.542-.418 1.327-.802 2.277-.394.941-.937 2.072-1.864 3.103a8.833 8.833 0 0 1-1.635 1.427c-.686.424-1.539.549-2.352.428a3.763 3.763 0 0 1-2.138-1.055 3.976 3.976 0 0 1-1.046-1.957c-.141-.698-.078-1.417.16-1.996l.615-1.544c.76-1.886 1.264-3.039 1.331-3.014.068.025-.314 1.222-.984 3.137-.277.973-.982 2.078-.653 3.317.258 1.228 1.32 2.422 2.79 2.597.712.107 1.447-.006 2.01-.348a8.73 8.73 0 0 0 1.546-1.315c.895-.955 1.453-2.023 1.882-2.928.814-1.842 1.274-3.025 1.355-2.99Z"/>
  <path fill="#263238" d="M379.077 296.999a2.314 2.314 0 1 0 0-4.628 2.314 2.314 0 0 0 0 4.628Zm-69.611-14.234a2.314 2.314 0 1 1-4.628 0 2.314 2.314 0 0 1 4.628 0Z"/>
  <path fill="#455A64" d="M308.209 260.508c.033.014-.14.509-.482 1.391l-1.46 3.727a389.114 389.114 0 0 0-4.617 12.364 384.32 384.32 0 0 0-4.163 12.527l-1.201 3.818c-.287.901-.463 1.395-.497 1.385-.035-.01.075-.522.302-1.44.225-.919.581-2.241 1.043-3.868a219.01 219.01 0 0 1 4.025-12.594 219.634 219.634 0 0 1 4.767-12.33c.661-1.557 1.214-2.81 1.615-3.667.399-.86.635-1.327.668-1.313Z"/>
  <path fill="#000" d="M409.844 304.918s-9.07-8.997-8.842-8.631l5.296 34.629 3.546-25.998Z" opacity=".3"/>
  <path fill="#FFBF9D" d="m381.766 378.547 6.562-1.568s-5.029-2.994-8.562-3.141c-3.533-.147-7.245 3.291-8.242-2.904 0 0 9.467-4.367 15.044-1.709s19.619 11.562 25.332 12.252l17.062 17.854s-6.583 7.749-12.702 6.839c-6.118-.91-19.032-10.18-19.032-10.18l-7.386-.532-11.813 4.359s-1.951-1.698-.141-3.824c1.81-2.125 9.757-4.4 9.757-4.4l5.953-1.773-5.992-1.154s-9.705 4.857-13.743 2.847c-4.038-2.01-4.438-5.53-4.438-5.53l12.341-7.436Z"/>
  <path fill="#FFBF9D" d="M476.389 313.811c-9.204-14.44-39.996-50.232-46.776-56.619l-27.555 37.645 42.846 33.93-33.93 53.743 16.89 17.94 50.374-60.759s7.354-11.441-1.849-25.88Z"/>
  <path fill="#FF9A6C" d="M396.234 382.576c.007.124-1.547.186-3.945-.264-1.195-.188-2.612-.477-4.152-.408-1.514.091-3.217.609-4.921 1.227-3.421 1.305-6.364 2.918-8.511 4.037-2.142 1.135-3.484 1.821-3.546 1.715-.058-.099 1.171-.968 3.245-2.245 2.079-1.26 4.998-2.974 8.511-4.316 1.77-.636 3.493-1.151 5.195-1.213 1.681-.027 3.116.342 4.299.604 2.352.6 3.822.746 3.825.863Z"/>
  <path fill="#263238" d="M460.046 289.983s-32.528-41.475-45.379-45.225c-3.17-.925-15.994 16.057-17.204 19.129-1.448 3.678-4.769 14.32-.155 22.892 10.843 20.144 32.866 38.165 32.866 38.165l29.872-34.961Z"/>
  <path fill="#455A64" d="M399.707 262.423c-.033-.013.059-.344.257-.932a49.51 49.51 0 0 1 .912-2.462c.83-2.043 2.075-4.916 4.298-7.542 2.236-2.626 5.126-4.149 7.333-4.574 1.104-.225 2.023-.242 2.645-.175.623.062.957.156.952.184-.004.113-1.391-.184-3.514.349-2.109.502-4.856 2.015-7.021 4.554-2.159 2.548-3.442 5.349-4.354 7.347-.899 2.017-1.435 3.28-1.508 3.251Z"/>
  <path fill="#FF9A6C" d="M456.41 327.631c-.033.165-2.855-.647-6.377-.279-3.527.327-6.136 1.675-6.201 1.52-.029-.055.581-.464 1.671-.924 1.087-.461 2.673-.933 4.478-1.114 1.805-.175 3.452-.023 4.609.217 1.16.238 1.838.521 1.82.58Z"/>
  <path fill="#263238" d="M68.649 125.257c-3.738.366-7.096 3.254-8.019 6.894-.226.89-.335 1.853-.896 2.58-.721.935-1.975 1.224-3.049 1.713-2.914 1.326-4.797 4.627-4.454 7.81-2.267.62-4.662 1.316-6.243 3.054-1.582 1.738-1.855 4.878.069 6.228-3.503 2.507-3.708 8.444-.386 11.187-4.171 2.117-6.757 6.992-6.172 11.633-2.159.652-4.48 1.418-5.779 3.261-1.299 1.844-.733 5.068 1.48 5.503-1.418 2.314-.745 5.672 1.456 7.26-2.583 1.289-3.123 5.368-.964 7.285 2.158 1.917 6.145.899 7.12-1.818.602 2.623 2.633 4.871 5.182 5.735-1.632 3.268-.976 7.533 1.563 10.159-2.252.785-3.574 3.566-2.761 5.808.813 2.242 3.611 3.529 5.842 2.688.383 2.193.985 4.441 2.434 6.131 1.449 1.69 3.948 2.657 5.977 1.741-1.406 3.498-1.349 7.823 1.071 10.713.701.837 1.564 1.519 2.421 2.196l5.336 4.212c1.699 1.341 4.364 2.62 5.755.961 2.555 4.106 9.105 4.89 12.557 1.504 1.962 4.428 7.983 4.833 12.818 4.56 1.531-.087 3.145-.199 4.419-1.053 1.993-1.335 2.511-3.988 3.763-6.034.685-1.119 1.614-2.081 2.24-3.234 1.636-3.014.723-7.167-2.027-9.217 2.794-4.005 2.134-9.382 1.357-14.203-.667-4.142-1.392-8.433-3.745-11.907-.343-.506-.734-1.042-.713-1.653.028-.812.755-1.393 1.36-1.936 3.048-2.728 4.255-7.333 2.939-11.206-.389-1.146-.987-2.306-.788-3.5.163-.979.836-1.781 1.435-2.572 2.925-3.858 4.312-10.005.61-13.126 4.942-4.126 6.355-11.907 3.181-17.507 4.872-3.073 6.402-10.392 3.169-15.16 1.9-2.411 3.873-4.996 4.205-8.047.332-3.051-1.753-6.576-4.822-6.582 1.355-1.418 1.137-3.813.042-5.44-1.095-1.627-2.849-2.667-4.545-3.653-2.548-1.481-5.215-3-8.156-3.186-2.941-.185-6.22 1.414-6.927 4.274-.322-1.561-2.124-2.442-3.711-2.298-1.587.144-2.993 1.037-4.328 1.906-2.258-3.369-8.32-2.806-9.92.92-3.059-2.804-8.92-.963-9.825 3.087"/>
  <path fill="#263238" d="M209.016 154.781c-1.174-2.886-4.412-4.478-7.52-4.705 1.85-2.281.908-6.013-1.478-7.724-2.386-1.712-5.692-1.669-8.428-.602 1.014-3.441-.559-7.327-3.352-9.577-2.794-2.25-6.588-3.001-10.154-2.614 1.17-2.95.56-6.529-1.522-8.925-2.081-2.395-5.541-3.499-8.625-2.753-.679-2.433-3.184-3.998-5.686-4.349-2.502-.35-5.026.273-7.475.892-1.258-4.079-4.993-7.282-9.216-7.903-4.223-.621-8.722 1.37-11.102 4.915-6.102-2.901-18.286.29-18.32 8.993l26.796 121.606c2.711 2.203 8.527 5.569 19.392 5.604 3.493.011 11.787-6.282 11.239-9.732 5.376-.416 9.871-5.728 9.393-11.098 3.365 1.201 6.248-2.596 7.819-5.805.813-1.661-.387.572.511-1.044 2.642-4.756.877-9.78-.382-11.036 2.026.406 5.878.999 8.009-2.707.882-1.535.086-5.532.086-5.532.425-1.86 1.177-2.793 1.555-4.663.377-1.87-.026-4.128-1.674-5.089 2.724-.361 6.161-1.449 6.281-4.195.053-1.218-.643-2.368-.638-3.587.004-.905.392-1.76.572-2.647.857-4.236-2.975-7.827-6.411-10.447 1.853-.72 3.762-1.476 5.169-2.88 1.406-1.404 2.181-3.644 1.306-5.429 3.114-.088 5.029-4.081 3.855-6.967Z"/>
  <path fill="#AE7461" d="M149.054 246.413a2395.971 2395.971 0 0 0-1.242-15.77s16.216-2.698 19.569-23.858c1.667-10.523 1.132-27.775.239-41.877-.804-12.694-12.573-29.388-28.256-28.578l-7.013-.425-26.088 12.076a7.443 7.443 0 0 0-6.656 7.551l8.579 90.918 14.161 28.693 27.008-18.024-.301-10.706Z"/>
  <path fill="#6F4439" d="M135.745 203.623c.084-1.11.643-2.118 1.388-2.831 1.489-1.425 3.765-1.681 5.501-.62 1.736 1.062 2.825 3.375 2.631 5.593-.867 1.342-2.255 2.292-3.837 2.518a6.833 6.833 0 0 1-.743.065c-1.207.035-2.456-.304-3.425-1.142-.971-.837-1.619-2.213-1.515-3.583Z"/>
  <path fill="#263238" d="M158.963 183.104c.051 1.434-1.121 2.658-2.616 2.739-1.492.081-2.746-1.012-2.798-2.445-.051-1.433 1.12-2.659 2.612-2.74 1.496-.081 2.751 1.014 2.802 2.446Zm3.635-10.882c-.336.354-2.393-1.166-5.313-1.158-2.917-.033-5.059 1.47-5.376 1.112-.156-.158.187-.797 1.119-1.476.918-.677 2.485-1.335 4.304-1.328 1.819.01 3.349.679 4.229 1.363.898.689 1.202 1.329 1.037 1.487Zm-16.815 23.867c-.014-.165 1.801-.48 4.742-.857.745-.077 1.451-.226 1.577-.734.175-.539-.137-1.343-.498-2.21l-2.207-5.677c-3.064-8.083-5.284-14.729-4.958-14.849.327-.121 3.076 6.333 6.141 14.415.737 1.993 1.443 3.893 2.114 5.71.283.847.768 1.809.388 2.926-.201.558-.748.962-1.226 1.091-.478.146-.897.154-1.266.177-2.96.161-4.796.174-4.807.008Z"/>
  <path fill="#6F4439" d="M147.811 230.642s-14.234.923-28.339-7.549c0 0 7.554 14.663 28.73 12.676l-.391-5.127Z"/>
  <path fill="#263238" d="M137.19 198.112c.475-.028.482 3.142 3.196 5.39 2.708 2.256 6.087 1.899 6.112 2.342.045.199-.752.616-2.178.655-1.399.049-3.442-.4-5.102-1.776-1.656-1.379-2.368-3.219-2.476-4.52-.122-1.323.231-2.109.448-2.091Zm25.452-32.379c-.491.713-2.727.237-5.339.456-2.619.134-4.777.906-5.351.265-.256-.314.03-1.009.934-1.726.892-.714 2.434-1.376 4.232-1.498 1.798-.119 3.409.329 4.381.918.988.589 1.356 1.239 1.143 1.585Zm-35.496 17.475c.004 1.434 1.22 2.613 2.718 2.637 1.494.024 2.706-1.116 2.703-2.55-.004-1.434-1.221-2.615-2.715-2.638-1.498-.025-2.709 1.117-2.706 2.551Zm-3.376-9.933c.35.341 2.347-1.257 5.265-1.36 2.913-.144 5.112 1.276 5.414.907.15-.164-.217-.789-1.174-1.433-.944-.641-2.535-1.239-4.352-1.163-1.817.079-3.321.806-4.174 1.523-.87.722-1.15 1.373-.979 1.526Zm1.236-9.425c.599.64 2.825-.132 5.531-.266 2.701-.219 5.016.256 5.518-.457.219-.345-.168-.995-1.193-1.585-1.011-.587-2.68-1.036-4.539-.916-1.858.124-3.448.784-4.363 1.499-.932.717-1.22 1.411-.954 1.725Z"/>
  <path fill="#AE7461" d="M105.188 190.78c-.004-1.576-1.826-5.29-3.383-5.532-4.155-.646-11.645-.31-11.711 10.243-.09 14.426 14.412 11.541 14.44 11.127.022-.323.669-10.397.654-15.838Z"/>
  <path fill="#6F4439" d="M100.587 201.323c-.063-.047-.253.175-.678.367a2.512 2.512 0 0 1-1.88.027c-1.521-.568-2.788-2.996-2.842-5.597a8.289 8.289 0 0 1 .726-3.594c.447-1.053 1.134-1.785 1.903-1.916a1.28 1.28 0 0 1 1.479.697c.191.405.097.693.174.717.04.037.311-.239.199-.835a1.602 1.602 0 0 0-.563-.908c-.344-.283-.852-.43-1.387-.376-1.113.071-2.12 1.088-2.639 2.221a8.542 8.542 0 0 0-.896 4.016c.074 2.908 1.545 5.637 3.627 6.253 1.013.271 1.862-.03 2.301-.368.448-.355.526-.678.476-.704Z"/>
  <path fill="#263238" d="M127.739 140.887a75.863 75.863 0 0 0-28.6 5.49c-2.7 1.089-5.49 2.466-7.008 4.95-1.335 2.184-1.468 4.879-1.41 7.438.184 8.014 3.522 17.788 6.661 25.164l10.076 5.878c7.687-1.91 3.999-15.178 3.551-21.844 5.353-2.421 9.041-8.136 9.044-14.011 4.374-2.873 7.298-7.846 7.686-13.065Z"/>
  <path fill="#263238" d="M124.904 137.051c-3.199-.31-6.51 1.304-8.236 4.015-1.726 2.711-1.789 6.394-.155 9.162-3.486.411-6.432 3.593-6.574 7.1-.143 3.507 2.535 6.917 5.976 7.61-2.073.867-3.447 3.072-3.527 5.317-.08 2.245 1.042 4.452 2.765 5.894 1.213 1.015 2.779 1.692 4.356 1.562 1.577-.13 3.117-1.187 3.539-2.712.422-1.525-.542-3.375-2.098-3.664 2.154-.537 3.386-2.98 3.28-5.197-.106-2.218-1.224-4.246-2.357-6.156 2.352-1.31 2.678-5.137.58-6.825 3.369-.401 6.371-2.994 7.258-6.269.216-.798-.347-2.076-1.005-1.576 2.371-.712 3.768-3.676 2.808-5.958"/>
  <path fill="#263238" d="M174.982 169.757c1.12-5.987-1.852-10.66-6.239-14.884 3.495-5.884 1.728-14.312-3.835-18.297.598-2.544-.4-5.393-2.455-7.008-2.055-1.615-5.059-1.911-7.389-.729-1.924-2.454-3.994-5.018-6.911-6.118-2.917-1.1-6.889-.029-7.798 2.953-2.823-4.556-10.126-5.376-13.889-1.559-3.864-1.877-9.119 1.818-8.66 6.09l4.959 6.803c-2.432 1.576-3.695 4.763-3.003 7.577.692 2.814 3.289 5.052 6.175 5.32-1.179 3.264-.296 7.176 2.172 9.616 1.149 1.136 3.592 1.607 3.97.036 1.148 1.476 3.791.221 4.164-1.612.373-1.832-.661-3.625-1.653-5.21 1.788.633 3.987-.336 4.726-2.083.739-1.747-.097-4-1.798-4.842l4.578.339c-.326 2.283.098 4.786 1.657 6.485 1.559 1.699 4.405 2.279 6.242.884-1.186 4.43 2.96 9.395 7.53 9.02 0 0 2.326.879 3.472-1.855 1.146-2.733.024-6.119.024-6.119s.944 7.962 4.322 8.827c1.257.322 2.039 1.915 2.525 3.789.812 3.123 4.498 4.464 7.114 2.577Zm-64.635 16.063c2.739-1.331 3.388-5.604 1.167-7.688 2.064-2.34 1.086-6.611-1.792-7.819 1.816-2.55 2.157-6.143.641-8.883-1.515-2.74-4.905-4.376-7.949-3.64-3.043.737-5.35 3.928-4.886 7.024l1.322 14.066c-.839.82-.928 2.288-.195 3.204.733.915 2.186 1.148 3.169.508-1.428 1.723-1.896 4.192-1.199 6.318.236.72.636 1.441 1.311 1.788.401.207.91.217 1.319.048-1.087 1.379-.937 3.705.507 4.78 1.681 1.251 4.487.341 5.114-1.658.856.746 2.281.472 3.066-.347.786-.82 1.046-2.015 1.072-3.151.046-1.909-.801-4.147-2.667-4.55Z"/>
  <path fill="#455A64" d="M169.876 176.383c.004-.026.379.084 1.11.08a5.833 5.833 0 0 0 3.013-.922 5.823 5.823 0 0 0 1.663-1.575c.474-.693.839-1.566.891-2.552.073-.98-.148-2.051-.659-3.045-.52-.984-1.353-1.905-2.48-2.434l-.18-.085.159-.12c1.835-1.387 2.654-4.244 1.762-6.798-.424-1.271-1.328-2.448-2.606-3.091-.633-.314-1.36-.5-2.073-.415a2.384 2.384 0 0 0-1.002.346c-.294.2-.554.466-.728.785-.377.619-.367 1.477.161 1.987.521.507 1.387.566 2.101.321.748-.228 1.29-.855 1.554-1.608.276-.748.293-1.589.205-2.412a8.71 8.71 0 0 0-1.945-4.616c-.553-.65-1.217-1.244-2.012-1.567-.787-.331-1.692-.358-2.488-.014l-.459.198.235-.442c1.215-2.285 1.593-5.279.499-7.853-.408-.916-.997-1.749-1.755-2.377-.756-.635-1.678-1.05-2.622-1.279-1.885-.475-4.008-.027-5.295 1.354l-.272-.215c.714-1.048.58-2.455-.003-3.53-.578-1.093-1.564-1.959-2.715-2.307-1.156-.368-2.393-.341-3.549-.104-1.162.238-2.262.67-3.294 1.18l-.26.128.031-.289c.174-1.623-.415-3.23-1.386-4.417-.968-1.2-2.362-1.989-3.793-2.136-1.433-.154-2.848.26-3.963.99-1.121.729-1.958 1.779-2.373 2.925l-.069.191-.136-.15c-1.744-1.923-4.081-2.778-6.092-2.986a10.781 10.781 0 0 0-5.132.686 9.764 9.764 0 0 0-2.794 1.716c-.277.254-.465.473-.605.606a1.964 1.964 0 0 1-.212.202s.243-.313.77-.859a9.45 9.45 0 0 1 2.79-1.789 10.824 10.824 0 0 1 5.202-.753c1.037.08 2.13.37 3.212.843a9.039 9.039 0 0 1 3.041 2.172l-.205.041c.427-1.203 1.295-2.302 2.458-3.066 1.156-.765 2.628-1.206 4.138-1.052 3.04.273 5.798 3.382 5.465 6.872l-.229-.16c1.048-.521 2.17-.967 3.37-1.216 1.193-.247 2.489-.283 3.716.105 1.24.374 2.298 1.3 2.917 2.467.309.585.51 1.242.531 1.923a3.319 3.319 0 0 1-.543 1.96l-.272-.215c1.391-1.493 3.654-1.958 5.63-1.46.995.24 1.964.675 2.767 1.348.808.669 1.428 1.549 1.855 2.509 1.144 2.703.744 5.791-.514 8.161l-.224-.244c.878-.382 1.906-.35 2.761.015.867.356 1.563.986 2.142 1.667a9.051 9.051 0 0 1 2.016 4.801c.089.855.075 1.743-.228 2.563a3.33 3.33 0 0 1-.666 1.115 2.66 2.66 0 0 1-1.095.688c-.798.268-1.781.223-2.431-.402a1.783 1.783 0 0 1-.514-1.164c-.021-.43.1-.847.305-1.205.2-.362.493-.662.831-.89a2.687 2.687 0 0 1 1.135-.391c.793-.091 1.57.117 2.242.452 1.356.687 2.304 1.939 2.74 3.267.915 2.666.054 5.629-1.883 7.081l-.021-.205c1.179.564 2.037 1.53 2.569 2.552.521 1.035.74 2.143.656 3.158-.063 1.021-.452 1.924-.948 2.631a5.907 5.907 0 0 1-1.725 1.593c-1.217.744-2.353.887-3.083.879-.74-.019-1.11-.148-1.11-.148Zm-90.137 27.955s-.395-.009-1.112-.239c-.702-.239-1.746-.743-2.701-1.841a6.406 6.406 0 0 1-1.21-2.074c-.279-.838-.418-1.831-.214-2.86.178-1.029.67-2.077 1.438-2.987.774-.898 1.852-1.669 3.159-1.992l.074.208c-.642.304-1.426.326-2.119.066-.699-.244-1.326-.717-1.8-1.329-.961-1.267-1.04-3.018-.751-4.627.144-.818.357-1.632.622-2.451.27-.816.624-1.637 1.159-2.37.523-.735 1.281-1.356 2.179-1.659.884-.311 1.953-.317 2.811.224l.166.105-.143.134c-1.272 1.191-3.272 1.413-4.921.751a4.667 4.667 0 0 1-2.116-1.652c-.528-.753-.84-1.654-.933-2.581-.198-1.851.516-3.841 1.977-5.128 1.434-1.303 3.416-1.991 5.404-1.933l.249.007-.095.231a1.447 1.447 0 0 1-.796.791c-.356.143-.741.151-1.101.089a2.693 2.693 0 0 1-1.796-1.18c-.4-.671-.389-1.443-.258-2.156.146-.718.463-1.376.813-2.001.358-.624.756-1.213 1.155-1.81.403-.595.833-1.184 1.335-1.722.977-1.08 2.377-1.934 3.928-1.928a3.452 3.452 0 0 1 1.728.452l.508.296-.586.034c-2.001.117-3.904-.969-4.999-2.545-.543-.795-.9-1.727-.944-2.689-.068-.961.183-1.91.589-2.755.849-1.665 2.469-2.964 4.332-3.156a4.278 4.278 0 0 1 2.629.656c.383.249.727.574.965.977.239.4.35.881.308 1.344l-.01.111-.107.035a2.33 2.33 0 0 1-1.783-.179c-.536-.281-.959-.72-1.271-1.211-.619-.977-.832-2.237-.417-3.315.383-1.07 1.137-1.936 1.967-2.615.836-.684 1.755-1.214 2.67-1.693l-.081.164c-.338-1.963.141-3.94 1.093-5.519.953-1.586 2.417-2.79 4.049-3.347 1.632-.563 3.354-.531 4.864-.104 1.515.435 2.827 1.278 3.771 2.348l-.201.073c.038-1.451.517-2.783 1.192-3.876.688-1.089 1.575-1.959 2.537-2.547.953-.61 1.982-.913 2.928-1.043a8.02 8.02 0 0 1 2.597.113 7.804 7.804 0 0 1 3.221 1.475c.633.508.89.847.89.847s-.082-.067-.231-.208a7.508 7.508 0 0 0-.697-.589 7.91 7.91 0 0 0-3.206-1.404 7.974 7.974 0 0 0-2.552-.083c-.926.137-1.927.441-2.853 1.044-.935.581-1.794 1.437-2.458 2.503-.653 1.069-1.108 2.368-1.138 3.772l-.006.291-.195-.218c-.92-1.03-2.195-1.841-3.667-2.256-1.467-.408-3.137-.43-4.706.119-1.567.541-2.972 1.705-3.888 3.24-.915 1.528-1.368 3.437-1.039 5.313l.02.112-.1.053c-.905.476-1.805 1.001-2.611 1.664-.801.659-1.509 1.483-1.864 2.48-.375.976-.18 2.125.392 3.029.287.45.675.847 1.145 1.091.467.247 1.02.317 1.529.154l-.117.146c.084-.805-.42-1.568-1.124-2.006a3.945 3.945 0 0 0-2.413-.599c-1.712.174-3.254 1.399-4.05 2.97-.382.795-.616 1.686-.551 2.578.041.892.374 1.761.884 2.509 1.029 1.483 2.833 2.503 4.686 2.392l-.078.33a3.093 3.093 0 0 0-1.549-.402c-.699-.003-1.396.194-2.018.515-.622.321-1.168.785-1.65 1.299-.95 1.042-1.715 2.276-2.443 3.465-.341.606-.642 1.236-.775 1.897-.126.643-.115 1.372.212 1.903.338.533.935.913 1.559 1.021.621.129 1.297-.094 1.517-.669l.154.238c-1.9-.058-3.803.603-5.165 1.838-1.388 1.219-2.059 3.089-1.878 4.846.087.877.38 1.723.871 2.428a4.335 4.335 0 0 0 1.97 1.543c1.55.627 3.428.414 4.596-.678l.022.239c-.757-.482-1.726-.488-2.552-.201-.839.283-1.541.85-2.044 1.55-.513.696-.86 1.489-1.127 2.288a17.938 17.938 0 0 0-.623 2.409c-.291 1.574-.207 3.253.684 4.432.859 1.156 2.429 1.791 3.627 1.211l.074.208c-1.255.302-2.303 1.039-3.06 1.905-.751.878-1.237 1.893-1.418 2.89-.206.997-.08 1.96.182 2.78a6.355 6.355 0 0 0 1.162 2.044 6.288 6.288 0 0 0 2.631 1.86c.698.246 1.092.273 1.087.297Z"/>
  <path fill="#455A64" d="M56.106 196.992s-.108.038-.324.095a1.851 1.851 0 0 1-.411.073 2.706 2.706 0 0 1-.579.024c-.868-.01-2.217-.429-3.38-1.664-.563-.618-1.111-1.415-1.379-2.415-.278-.992-.31-2.137-.091-3.316.223-1.18.689-2.392 1.35-3.58.335-.593.697-1.187 1.141-1.764.439-.554 1.047-1.143 1.879-1.201l.024.244a2.987 2.987 0 0 1-2.152-.59 4.23 4.23 0 0 1-1.426-1.859c-.611-1.54-.243-3.309.412-4.87.657-1.574 1.58-3.153 2.934-4.417.674-.628 1.459-1.185 2.375-1.507a3.824 3.824 0 0 1 2.889.137l-.149.284c-1.02-.571-1.657-1.674-1.875-2.808-.236-1.144-.163-2.335.074-3.491.252-1.155.631-2.295 1.218-3.368.59-1.059 1.443-2.05 2.623-2.577 1.165-.487 2.583-.531 3.733.152.563.342 1.037.87 1.236 1.529.099.325.123.692.01 1.038a1.378 1.378 0 0 1-.697.8 2.004 2.004 0 0 1-2.004-.171c-.57-.412-.905-1.05-1.095-1.686-.353-1.287-.342-2.652-.041-3.954.883-3.759 4.114-6.841 7.842-7.24l-.024.344c-.812-.195-1.512-.75-1.928-1.446-.425-.696-.613-1.499-.636-2.285-.043-1.567.566-3.171 1.76-4.166 1.156-1.01 2.597-1.561 4.011-1.877 1.423-.318 2.848-.428 4.235-.52l-.128.242c-1.031-1.776-.894-3.943-.131-5.647.76-1.727 2.154-3.107 3.789-3.779 1.626-.697 3.379-.811 4.976-.583 1.605.237 3.077.804 4.347 1.552l-.148.018c2.189-2.093 4.81-3.167 7.132-3.588a14.837 14.837 0 0 1 6.031.124c1.623.378 2.79.953 3.551 1.369.377.217.646.413.833.532.185.124.274.194.274.194s-.103-.051-.294-.165c-.193-.109-.468-.294-.848-.501a14.227 14.227 0 0 0-3.547-1.299 14.82 14.82 0 0 0-5.965-.065c-2.29.434-4.862 1.51-6.997 3.574l-.067.065-.081-.047a11.841 11.841 0 0 0-4.26-1.498c-1.56-.216-3.261-.095-4.824.582-1.568.651-2.895 1.975-3.623 3.638-.728 1.641-.843 3.699.128 5.36l.132.224-.259.018c-1.383.095-2.792.209-4.183.522-1.383.311-2.766.849-3.861 1.809-1.11.925-1.678 2.423-1.637 3.9.022.738.201 1.484.587 2.113.38.629.992 1.113 1.716 1.289l.982.237-1.006.107c-3.556.376-6.689 3.357-7.533 6.972-.291 1.245-.297 2.565.034 3.772.177.593.482 1.154.963 1.501.463.33 1.137.393 1.638.144.523-.24.694-.875.51-1.423-.166-.556-.582-1.029-1.081-1.331-1.019-.613-2.343-.583-3.415-.133-1.076.477-1.897 1.411-2.462 2.425-.565 1.025-.942 2.152-1.188 3.27-.233 1.121-.303 2.275-.081 3.356.208 1.077.79 2.075 1.713 2.596l-.149.283a3.506 3.506 0 0 0-2.65-.128c-.856.298-1.612.827-2.266 1.433-1.318 1.223-2.223 2.755-2.877 4.305-.65 1.526-.993 3.227-.428 4.661.535 1.406 1.915 2.495 3.296 2.305l.024.244c-.712.042-1.283.564-1.711 1.102a14.478 14.478 0 0 0-1.131 1.726c-.658 1.167-1.124 2.355-1.351 3.508-.223 1.151-.201 2.271.06 3.236.25.971.776 1.757 1.319 2.367 1.124 1.222 2.434 1.654 3.285 1.686.864.039 1.302-.158 1.307-.122Zm49.174-11.02s-.256.221-.856.395c-.591.167-1.571.22-2.648-.283a4.537 4.537 0 0 1-1.553-1.168c-.479-.537-.825-1.262-.988-2.077-.335-1.636.126-3.612 1.342-5.277l.074.222c-1.275-.382-2.481-1.234-3.349-2.428-.864-1.187-1.406-2.732-1.302-4.346.168-3.256 3.422-6.26 7.076-5.986l.008.352a1.847 1.847 0 0 1-.971-.147c-.63-.279-1.088-.822-1.332-1.436-.234-.615-.269-1.27-.228-1.888.112-1.23.312-2.428.78-3.542.238-.552.555-1.07.964-1.504a3.392 3.392 0 0 1 1.495-.927 3.293 3.293 0 0 1 1.713-.076 2.328 2.328 0 0 1 1.401.927l.309.447-.501-.207c-1.33-.551-2.377-1.536-3.06-2.643a7.642 7.642 0 0 1-.782-1.734 7.572 7.572 0 0 1-.282-1.779c-.014-1.17.283-2.267.803-3.138a6.669 6.669 0 0 1 1.844-2.058c1.363-1.006 2.722-1.285 3.611-1.334.903-.04 1.374.101 1.374.101-.003.035-.481-.072-1.367 0a6.79 6.79 0 0 0-3.503 1.386 6.524 6.524 0 0 0-1.757 2.018c-.491.846-.761 1.896-.738 3.018.026.56.119 1.133.286 1.704a7.43 7.43 0 0 0 .763 1.658c.662 1.058 1.669 1.988 2.928 2.503l-.192.24c-.555-.825-1.753-1.034-2.751-.712-1.037.291-1.804 1.204-2.241 2.247-.44 1.049-.64 2.242-.745 3.428-.039.591-.002 1.192.206 1.739.208.529.619 1.009 1.143 1.238.255.116.534.15.784.121l.008.352c-3.432-.268-6.555 2.596-6.711 5.656-.105 1.522.402 3 1.222 4.14.823 1.146 1.968 1.965 3.176 2.339l.193.06-.12.162c-1.185 1.593-1.647 3.497-1.345 5.062.267 1.598 1.371 2.665 2.385 3.143 1.03.508 1.976.484 2.558.347.59-.145.863-.342.876-.315Zm34.018-41.096c-.049.021-.07-.58-.7-1.339-.617-.755-1.932-1.476-3.671-1.71a11.417 11.417 0 0 0-2.859-.004c-1.01.134-2.099.455-2.99 1.165-.878.696-1.596 1.798-1.563 3.022.019.596.235 1.216.662 1.646.421.439 1.075.596 1.689.454.621-.132 1.152-.526 1.509-1.039.361-.512.578-1.118.68-1.727.219-1.221-.005-2.458-.494-3.488-.487-1.035-1.222-1.891-2.071-2.45a5.423 5.423 0 0 0-2.649-.91 6.337 6.337 0 0 0-3.941.996c-.82.545-1.152 1.001-1.182.97 0 0 .29-.49 1.105-1.085a6.325 6.325 0 0 1 4.036-1.132c.899.051 1.9.32 2.794.915.902.58 1.684 1.471 2.204 2.556.522 1.08.77 2.384.541 3.688-.107.648-.335 1.301-.735 1.87-.393.569-1.007 1.032-1.721 1.182-.703.169-1.514-.023-2.015-.551-.506-.515-.739-1.213-.76-1.885-.028-1.374.768-2.552 1.708-3.288.965-.755 2.109-1.074 3.155-1.2a11.52 11.52 0 0 1 2.933.047c1.781.272 3.13 1.055 3.741 1.871.323.396.445.781.53 1.028.054.26.076.395.064.398Zm43.106.195c-.023-.002.033-.368-.002-1.062a7.31 7.31 0 0 0-.794-2.9c-.586-1.157-1.66-2.486-3.381-3.224-1.682-.739-4-.888-6.085.188l-.206.106.018-.232c.163-2.136.405-4.509-.16-6.938-.286-1.2-.814-2.398-1.636-3.416-.811-1.014-1.96-1.846-3.3-2.104-.662-.123-1.373-.09-1.988.195-.616.268-1.078.855-1.226 1.518-.074.33-.055.677.066.988.13.306.359.563.659.718.601.317 1.4.25 2.002-.102.618-.344.96-1.059.97-1.785.016-.727-.243-1.472-.697-2.064-.939-1.2-2.546-1.709-4.101-1.89a14.096 14.096 0 0 0-8.573 1.713l-.368.209.115-.41a5.424 5.424 0 0 0 .2-1.549 6.15 6.15 0 0 0-.266-1.527 6.88 6.88 0 0 0-1.565-2.602c-1.389-1.483-3.367-2.171-5.243-2.297-1.889-.126-3.742.215-5.357.815-.788.333-1.5.83-2.008 1.453-.25.312-.444.665-.51 1.036-.07.37.006.746.189 1.066l.511.897-.722-.738c-1.783-1.822-4.079-2.659-6.078-2.869-2.02-.239-3.786.135-5.123.623a10.248 10.248 0 0 0-2.854 1.637c-.291.242-.488.456-.635.583-.143.133-.219.199-.224.194-.005-.005.062-.079.196-.221.138-.138.328-.362.613-.615a9.83 9.83 0 0 1 2.851-1.717 11.159 11.159 0 0 1 5.198-.695c2.038.193 4.396 1.027 6.248 2.895l-.211.16a1.836 1.836 0 0 1-.228-1.248c.076-.432.292-.824.561-1.163.546-.676 1.285-1.193 2.113-1.55 1.675-.631 3.54-.981 5.494-.861 1.93.121 4.001.829 5.464 2.382a7.21 7.21 0 0 1 1.648 2.73c.158.522.261 1.065.285 1.621.01.556-.06 1.116-.213 1.66l-.253-.202a14.408 14.408 0 0 1 8.787-1.763c.81.096 1.616.273 2.373.587.754.314 1.457.785 1.965 1.441.5.654.786 1.466.768 2.288-.007.811-.411 1.667-1.145 2.075-.706.406-1.602.488-2.338.107a1.782 1.782 0 0 1-.817-.895 2.041 2.041 0 0 1-.081-1.188c.172-.769.71-1.441 1.418-1.749.698-.321 1.477-.349 2.188-.215 1.44.282 2.642 1.169 3.485 2.23.854 1.065 1.392 2.305 1.682 3.545.567 2.499.302 4.893.126 7.029l-.188-.125c2.178-1.103 4.562-.925 6.287-.147 1.766.779 2.85 2.159 3.427 3.347a7.157 7.157 0 0 1 .741 2.962c.012.703-.072 1.065-.072 1.065Zm7.007 40.011s.266.17.655.623a5.18 5.18 0 0 1 1.101 2.345c.222 1.097.143 2.638-.863 3.966-.962 1.299-2.808 2.357-4.908 2.083l-.346-.045.301-.182c.577-.348 1.319-.4 1.984-.192a3.315 3.315 0 0 1 1.704 1.245c.426.612.609 1.372.604 2.134-.006.764-.196 1.531-.508 2.254-1.247 2.892-4.518 5.157-8.166 5.024v-.334c.636-.027 1.271.204 1.771.598.499.397.885.925 1.137 1.515.534 1.197.347 2.592-.097 3.794-.458 1.221-1.115 2.347-1.818 3.468-.719 1.109-1.555 2.174-2.556 3.1-.775.705-1.653 1.312-2.637 1.675-.978.367-2.067.447-3.063.186l.188-.269c1.2 1.777 2.023 3.812 2.074 5.89.012 1.031-.165 2.066-.604 2.979a5.267 5.267 0 0 1-1.981 2.182c-.826.512-1.758.847-2.705.875-.937.036-1.904-.204-2.611-.796-.712-.544-1.254-1.425-1.101-2.35.074-.465.415-.849.811-1.04.389-.199.925-.218 1.286.094l.048.042.001.061c.026 1.42-.436 2.741-1.116 3.809-.699 1.062-1.615 1.891-2.608 2.419a6.221 6.221 0 0 1-3.013.748c-.966.004-1.836-.222-2.569-.514-1.48-.596-2.387-1.503-2.893-2.157-.505-.668-.658-1.087-.658-1.087.025-.015.203.393.722 1.036.52.629 1.43 1.5 2.887 2.062.722.275 1.573.483 2.511.469a6.038 6.038 0 0 0 2.907-.752c.955-.518 1.834-1.328 2.502-2.359.649-1.036 1.083-2.311 1.05-3.665l.049.103c-.533-.45-1.53.053-1.628.786-.129.757.342 1.565 1.002 2.057.647.538 1.533.756 2.408.72.883-.028 1.765-.349 2.544-.834a4.95 4.95 0 0 0 1.853-2.049c.411-.86.578-1.845.565-2.83-.051-1.986-.85-3.968-2.023-5.699l-.262-.386.451.117c.929.241 1.933.168 2.854-.178.926-.341 1.769-.921 2.519-1.605.971-.898 1.792-1.94 2.499-3.031.691-1.098 1.348-2.226 1.787-3.396.428-1.162.594-2.45.109-3.54-.443-1.076-1.454-1.972-2.578-1.914v-.335c3.493.141 6.672-2.038 7.877-4.809.61-1.36.724-2.978-.048-4.113-.753-1.107-2.29-1.628-3.337-.998l-.045-.226c1.988.278 3.781-.719 4.719-1.958.98-1.263 1.082-2.749.885-3.825a5.251 5.251 0 0 0-1.023-2.326c-.365-.458-.615-.649-.6-.665Zm-1.505-15.398c-.008-.009.078-.101.249-.267l.75-.721c.629-.635 1.609-1.545 2.333-2.969.349-.709.618-1.559.617-2.483.008-.924-.34-1.887-.996-2.698a8.14 8.14 0 0 0-2.528-2.061c-1-.525-2.186-.861-3.362-.671-.199.028-.39.083-.568.132l-.084-.343c1.126-.2 1.998-1.095 2.444-2.071.453-.991.502-2.092.415-3.099-.219-2.023-.721-3.864-1.653-5.082-.918-1.238-2.19-1.698-3.022-1.759-.858-.059-1.308.184-1.317.14-.004-.008.102-.068.322-.142.218-.074.56-.145 1.003-.133.868.021 2.218.462 3.21 1.744 1.003 1.263 1.536 3.137 1.78 5.202.098 1.038.062 2.194-.423 3.273-.475 1.051-1.415 2.043-2.697 2.276l-.084-.344c.194-.054.403-.113.619-.144 1.282-.206 2.539.162 3.581.713a8.386 8.386 0 0 1 2.624 2.167c.686.858 1.056 1.916 1.032 2.9-.013.986-.311 1.867-.688 2.596-.782 1.462-1.802 2.348-2.463 2.957-.34.3-.611.525-.797.674-.187.149-.289.222-.297.213ZM38.938 220.242c-.011.005-.066-.112-.161-.343a2.848 2.848 0 0 1-.15-1.079c.016-.957.629-2.316 1.92-3.43 1.273-1.187 3.278-1.738 5.265-2.624.994-.45 2.003-1.025 2.784-1.905.794-.869 1.392-1.983 2.295-2.935.912-.97 2.094-1.497 3.067-2.162a12.368 12.368 0 0 0 2.555-2.262 13.974 13.974 0 0 0 2.767-5.062c.471-1.591.574-2.947.576-3.873.008-.931-.075-1.445-.033-1.449.012-.002.036.126.072.37.037.244.089.606.099 1.076.041.936-.025 2.316-.473 3.946a13.91 13.91 0 0 1-2.76 5.205 12.559 12.559 0 0 1-2.61 2.338c-1.005.688-2.153 1.208-3.003 2.119-.86.902-1.462 2.015-2.294 2.924-.829.927-1.893 1.522-2.907 1.97-2.037.885-3.997 1.399-5.236 2.517-1.269 1.055-1.888 2.337-1.946 3.249-.08.921.231 1.398.173 1.41Z"/>
  <path fill="#263238" d="M36.679 209.656c.027-.133.538-.093 1.391-.262.841-.162 2.071-.59 3.369-1.413.629-.41 1.247-.951 1.607-1.642.363-.686.492-1.589.22-2.348a2.028 2.028 0 0 0-.686-.948 2.122 2.122 0 0 0-1.127-.45c-.402-.03-.769.066-1.041.303a1.686 1.686 0 0 0-.56 1.022c-.051.404.045.702.293.957.243.254.645.423 1.06.462.81.087 1.699-.388 2.387-1.037 1.415-1.324 2.086-3.099 2.29-4.597a9.298 9.298 0 0 0-.241-3.628c-.235-.849-.439-1.322-.323-1.395.087-.059.499.292.964 1.14.445.844.914 2.224.848 3.99-.067 1.737-.691 3.915-2.401 5.661-.427.43-.931.836-1.543 1.145-.601.307-1.349.508-2.119.451-.754-.059-1.548-.333-2.17-.949a2.795 2.795 0 0 1-.697-1.133 2.983 2.983 0 0 1-.103-1.308 3.4 3.4 0 0 1 1.195-2.144c.663-.559 1.559-.757 2.323-.67 1.546.159 2.809 1.276 3.204 2.62.394 1.323.092 2.617-.499 3.588-.615.988-1.475 1.584-2.252 1.992-1.563.787-2.961 1.051-3.946 1.017-.984-.035-1.472-.321-1.443-.424Zm32.818 41.259c.039-.044.111-.078.097-.143a.58.58 0 0 1 .004-.211c.041-.24.215-.656.419-1.098.424-.905 1.088-2.092 1.87-3.372 1.568-2.553 3.017-4.543 3.458-4.32.433.217-.337 2.623-1.947 5.245-.8 1.309-1.649 2.416-2.346 3.152-.357.379-.64.625-.925.835-.165.116-.358.177-.521.126-.163-.066-.146-.178-.109-.214Zm140.353-46.161c.044.087-.549.552-1.859.82-1.282.231-3.363.194-5.466-1.104-.527-.313-1.021-.734-1.5-1.212a7.82 7.82 0 0 1-1.222-1.733 8.102 8.102 0 0 1-.75-4.557c.195-1.625.857-3.324 2.125-4.665.633-.666 1.384-1.242 2.275-1.637.887-.392 1.92-.61 2.993-.43 1.06.187 2.031.733 2.699 1.599.336.428.57.952.676 1.494.1.542.075 1.089-.052 1.588a4.404 4.404 0 0 1-1.607 2.429c-.756.575-1.617.89-2.447 1.04-1.669.292-3.264-.012-4.589-.593a8.162 8.162 0 0 1-3.144-2.446 7.66 7.66 0 0 1-1.392-2.942 7.375 7.375 0 0 1-.17-2.413c.141-1.323.534-1.962.629-1.928.135.036-.017.729.06 1.939.082 1.181.458 2.986 1.84 4.547a7.139 7.139 0 0 0 2.742 1.887c1.115.429 2.439.613 3.713.347.632-.133 1.235-.386 1.718-.772.467-.374.828-.917.959-1.499.134-.585.031-1.14-.334-1.603-.357-.467-.967-.82-1.6-.926-1.292-.221-2.752.507-3.711 1.519-.993 1.012-1.566 2.364-1.764 3.681a6.779 6.779 0 0 0 .459 3.712 6.69 6.69 0 0 0 .91 1.447c.371.411.756.793 1.182 1.087 1.699 1.23 3.512 1.471 4.696 1.46 1.206-.04 1.878-.27 1.931-.136Zm2.852-30.603c.074.064-.212.639-1.145 1.261-.908.605-2.55 1.256-4.615.85-1.021-.194-2.106-.736-2.997-1.594a6.821 6.821 0 0 1-1.908-3.41c-.31-1.369-.193-2.966.631-4.367.417-.697 1.026-1.335 1.862-1.728.821-.369 1.765-.476 2.689-.199.459.141.904.385 1.266.728.361.341.626.768.787 1.207.321.886.273 1.791.012 2.592-.131.4-.329.787-.572 1.123a4.932 4.932 0 0 1-.805.866 6.445 6.445 0 0 1-1.878 1.084c-2.57.946-5.053.706-6.929.134-1.898-.586-3.219-1.537-4.002-2.282-.783-.758-1.068-1.295-.988-1.366.099-.093.554.277 1.413.823a12.119 12.119 0 0 0 3.898 1.614c1.708.371 3.916.423 5.998-.437 1.004-.416 1.938-1.155 2.213-2.09.149-.477.153-1.017-.011-1.442a1.363 1.363 0 0 0-.919-.857c-.446-.14-.997-.089-1.441.109-.431.195-.832.571-1.109 1.024-.57.924-.718 2.096-.516 3.137a5.507 5.507 0 0 0 1.357 2.709c.66.707 1.446 1.181 2.249 1.408 1.624.474 3.092.124 3.99-.243.923-.372 1.371-.758 1.47-.654Z"/>
  <path fill="#455A64" d="M78.255 205.332c.054.057-.92.391-1.766 1.783a5.596 5.596 0 0 0-.776 2.746c-.042 1.101.293 2.401 1.209 3.405l.357.391-.51-.139c-1.278-.348-2.783-.331-4.24.148-1.452.48-2.845 1.453-3.752 2.859-1.205 1.862-1.485 4.149-.956 6.004l.137.478-.398-.301a7.484 7.484 0 0 0-4.504-1.491 8.315 8.315 0 0 0-3.694.808c-1.945.947-2.624 2.132-2.682 2.062-.008-.006.036-.072.127-.196.096-.119.219-.315.426-.528.399-.436 1.061-1.02 2.038-1.522a8.354 8.354 0 0 1 3.785-.906 7.704 7.704 0 0 1 4.707 1.509l-.263.178c-.568-1.944-.284-4.335.98-6.289.953-1.478 2.424-2.499 3.942-2.99 1.525-.492 3.097-.498 4.429-.118l-.153.252c-.973-1.091-1.3-2.474-1.235-3.622a5.668 5.668 0 0 1 .874-2.832 4.711 4.711 0 0 1 1.321-1.377c.182-.125.34-.191.439-.246.1-.051.154-.073.158-.066Zm5.419 32.653c.003.012-.133.048-.398.106a2.337 2.337 0 0 1-.495.073c-.198.013-.427.041-.685.016-1.016-.038-2.568-.423-3.961-1.68a6.275 6.275 0 0 1-1.706-2.491c-.209-.511-.296-1.082-.344-1.668.008-.586.044-1.201.249-1.789a5.933 5.933 0 0 1 .833-1.701 6.473 6.473 0 0 1 1.347-1.443 6.4 6.4 0 0 1 1.769-1.026 5.493 5.493 0 0 1 2.072-.407c.715.006 1.439.085 2.083.444.315.18.606.44.768.787.157.339.2.733.077 1.098a1.116 1.116 0 0 1-.827.725c-.365.079-.717.011-1.033-.093-.635-.23-1.15-.603-1.618-1.012-1.864-1.679-2.4-4.164-1.913-5.956a6.18 6.18 0 0 1 2.437-3.543c.853-.59 1.43-.695 1.43-.695.019.039-.541.195-1.349.806a6.176 6.176 0 0 0-2.275 3.49c-.435 1.717.108 4.076 1.886 5.654.437.38.952.739 1.509.935.279.092.581.14.849.079a.766.766 0 0 0 .575-.504 1.142 1.142 0 0 0-.066-.835c-.121-.262-.354-.476-.624-.629-.549-.31-1.242-.393-1.907-.397a5.164 5.164 0 0 0-1.947.381 6.05 6.05 0 0 0-1.68.969c-.501.396-.94.856-1.285 1.365a5.593 5.593 0 0 0-.799 1.605c-.199.555-.234 1.132-.249 1.683.041.551.115 1.09.309 1.578.351.985.943 1.8 1.599 2.406 1.322 1.236 2.812 1.649 3.8 1.727 1.008.072 1.562-.106 1.569-.058Zm-34.236-71.836c.007.033-.372.098-1.011.341a7.117 7.117 0 0 0-2.407 1.546c-.865.836-1.696 2.105-1.936 3.687-.251 1.564.072 3.414 1.122 4.925.144.214.309.41.463.593l.22.262-.336.032c-1.746.164-3.277 1.064-4.266 2.188-1.012 1.128-1.449 2.48-1.555 3.606a6.903 6.903 0 0 0 .259 2.669c.187.611.353.928.325.942-.011.006-.06-.069-.144-.218a4.43 4.43 0 0 1-.307-.682 6.532 6.532 0 0 1-.376-2.732c.077-1.168.507-2.597 1.557-3.796 1.024-1.193 2.625-2.153 4.475-2.33l-.116.294a7.26 7.26 0 0 1-.489-.626 7.118 7.118 0 0 1-1.153-5.18c.271-1.663 1.168-2.976 2.085-3.817a6.786 6.786 0 0 1 2.534-1.495c.332-.105.597-.164.778-.188.181-.025.277-.033.278-.021Zm12.846-20.599c-.017.034-.392-.186-1.135-.38a6.17 6.17 0 0 0-3.193.05c-1.289.358-2.799 1.275-3.558 2.914-.77 1.592-.825 3.787.23 5.563.118.22.277.411.41.599l.166.235-.272.05c-1.96.358-3.618 1.49-4.672 2.828-1.078 1.343-1.519 2.89-1.606 4.174a8.15 8.15 0 0 0 .352 3.028c.22.692.41 1.05.381 1.064-.011.006-.065-.079-.159-.249a5.46 5.46 0 0 1-.349-.772 7.729 7.729 0 0 1-.47-3.087c.057-1.323.488-2.945 1.598-4.357 1.083-1.407 2.805-2.599 4.862-2.978l-.106.285c-.143-.2-.311-.406-.438-.64-1.123-1.897-1.05-4.207-.22-5.887a5.397 5.397 0 0 1 1.701-2.031 6.062 6.062 0 0 1 2.085-.982 6.057 6.057 0 0 1 3.296.059c.374.118.654.242.832.345.18.101.271.158.265.169ZM171.2 201.861c.001-.012.127-.02.364-.024l.438-.003.593-.06c.878-.119 2.181-.402 3.528-1.273a8.926 8.926 0 0 0 3.555-4.183c.379-.969.617-2.073.534-3.201-.046-.56-.18-1.124-.45-1.627a2.821 2.821 0 0 0-1.205-1.186c-.425-.218-.907-.299-1.334-.221l-.375.068.19-.33c1.135-1.971 1.984-3.998 2.143-5.932.088-.961-.002-1.886-.249-2.696a6.439 6.439 0 0 0-1.113-2.07c-.91-1.131-2.012-1.684-2.794-1.841-.789-.171-1.245-.083-1.247-.126 0 0 .449-.138 1.273-.003.815.122 1.983.663 2.953 1.817a6.575 6.575 0 0 1 1.197 2.136c.273.849.376 1.812.295 2.808-.145 2.008-1.009 4.087-2.153 6.082l-.185-.261c.509-.094 1.074.005 1.557.253a3.169 3.169 0 0 1 1.356 1.336c.298.558.439 1.171.486 1.767.083 1.197-.173 2.343-.577 3.351a9.053 9.053 0 0 1-3.727 4.274 8.237 8.237 0 0 1-3.645 1.196l-.605.028-.442-.031c-.239-.02-.362-.036-.361-.048Z"/>
  <path fill="#263238" d="M51.473 236.104c-.102.064-.463-.272-1.011-.968-.532-.701-1.313-1.757-1.839-3.361a7.094 7.094 0 0 1-.312-2.774c.091-1.021.497-2.182 1.347-3.078a5.284 5.284 0 0 1 3.366-1.66c1.356-.126 2.839.33 3.861 1.49.25.292.46.628.609.991.152.357.241.791.236 1.178 0 .791-.26 1.527-.727 2.127-.45.602-1.201 1.059-2.003 1.115-.776.058-1.523-.24-2.032-.65-1.03-.829-1.502-1.932-1.696-2.947a7.082 7.082 0 0 1 .024-2.791c.352-1.671 1.183-2.814 1.841-3.444.673-.636 1.161-.816 1.225-.73.084.105-.245.468-.693 1.168-.439.695-.99 1.783-1.136 3.205-.065.705-.046 1.486.171 2.266.186.758.629 1.527 1.24 1.965.303.217.612.301.916.272.275-.037.551-.188.766-.486.218-.286.348-.686.341-1.051.006-.352-.158-.705-.427-1.031-.552-.643-1.514-.99-2.374-.915a3.748 3.748 0 0 0-2.334 1.064c-.602.581-.932 1.346-1.064 2.131-.13.785-.075 1.571.067 2.271.3 1.41.872 2.531 1.216 3.32.359.789.527 1.257.422 1.323Zm129.046 1.567c-.014-.104.334-.216.913-.485.572-.272 1.392-.724 2.158-1.559.757-.826 1.446-2.049 1.486-3.534.057-1.466-.541-3.193-1.847-4.33l-2.578-2.243 3.339.819c1.979.485 4.365.196 6.451-.938a9.902 9.902 0 0 0 2.987-2.455 8.389 8.389 0 0 0 1.578-3.194c.557-2.249.139-4.447-.538-6.099a10.906 10.906 0 0 0-2.403-3.542l-.501-.477-.385-.338c-.206-.192-.304-.321-.275-.375.029-.054.184-.03.46.069.136.051.309.113.499.209l.636.375c.933.601 2.152 1.748 3.104 3.546.913 1.785 1.561 4.273.996 6.994a9.722 9.722 0 0 1-1.804 3.904 11.203 11.203 0 0 1-3.517 2.945c-2.457 1.334-5.314 1.65-7.704.984l.762-1.424c1.713 1.602 2.325 3.819 2.142 5.665-.178 1.893-1.189 3.334-2.178 4.177-1.008.865-2.021 1.214-2.702 1.342-.693.122-1.071.049-1.079-.036ZM84.732 118.002c-.069-.064.165-.501.795-1.141.633-.629 1.694-1.447 3.235-2.063a10.867 10.867 0 0 1 5.833-.624c1.11.189 2.362.553 3.431 1.505a4.131 4.131 0 0 1 1.187 1.863c.223.731.244 1.613-.127 2.421l-1.605-.651c.531-1.513 1.431-2.963 2.671-4.108 2.41-2.3 5.71-3.309 8.588-2.925 1.444.175 2.737.705 3.814 1.362a10.687 10.687 0 0 1 2.631 2.278c1.368 1.641 1.917 3.323 2.115 4.46.175 1.159.044 1.8-.057 1.802-.142.01-.25-.607-.611-1.628-.382-1.005-1.053-2.444-2.381-3.798-1.303-1.333-3.285-2.63-5.697-2.854-2.382-.239-5.155.649-7.184 2.59-1.046.962-1.79 2.158-2.249 3.385l-1.605-.651c.346-.683.036-1.746-.616-2.342-.667-.647-1.638-1.02-2.595-1.222-1.923-.426-3.749-.215-5.176.202a12.419 12.419 0 0 0-3.222 1.473c-.708.457-1.089.748-1.175.666Zm68.263-1.429c-.147-.041.126-1 .083-2.72a11.978 11.978 0 0 0-.549-3.053 11.598 11.598 0 0 0-1.896-3.578c-.477-.575-1.004-1.159-1.647-1.651a8.638 8.638 0 0 0-2.139-1.283c-.786-.351-1.661-.573-2.574-.68a9.963 9.963 0 0 0-2.834.048c-1.917.299-3.89 1.114-5.436 2.528-.761.702-1.458 1.537-1.93 2.47-.468.919-.698 1.96-.469 2.853.218.921.891 1.69 1.644 1.838.748.167 1.67-.247 2.219-.923.274-.337.461-.726.534-1.115a2.972 2.972 0 0 0-.071-1.276c-.225-.849-.802-1.619-1.499-2.149-1.427-1.059-3.4-1.161-5.076-.825-1.709.332-3.197 1.108-4.407 1.993a12.842 12.842 0 0 0-4.254 5.703c-.582 1.625-.661 2.616-.81 2.605-.093.002-.257-1.014.15-2.807.433-1.752 1.563-4.324 4.138-6.486 1.288-1.047 2.923-1.995 4.874-2.445.971-.224 2.021-.334 3.116-.223 1.091.117 2.229.446 3.235 1.168.978.715 1.793 1.734 2.163 3.008a4.66 4.66 0 0 1 .134 2.018 4.234 4.234 0 0 1-.881 1.927 4.553 4.553 0 0 1-1.685 1.292 3.766 3.766 0 0 1-2.245.26 3.689 3.689 0 0 1-1.979-1.174 4.581 4.581 0 0 1-1.021-1.963c-.363-1.481.027-2.916.617-4.077.601-1.168 1.429-2.138 2.347-2.968 1.856-1.654 4.148-2.551 6.363-2.849a11.328 11.328 0 0 1 3.271.025c1.053.155 2.062.445 2.966.884a9.84 9.84 0 0 1 2.415 1.574c.709.594 1.275 1.278 1.773 1.949a11.961 11.961 0 0 1 1.848 4.064c.309 1.28.343 2.42.284 3.333-.176 1.836-.69 2.739-.772 2.705Z"/>
  <path fill="#455A64" d="M148.524 238.609c.087-.868 39.513 7.002 39.513 7.002s14.329 59.66 15.945 69.589c1.616 9.929-5.526 66.635-5.526 66.635l4.887 25.079-116.984-5.806 10.185-25.168-24.599-120.672 35.176-15.146s8.903 11.007 20.118 14.503c7.196 2.243 14.198.647 18.895-5.248 1.836-2.303 1.994-6.845 2.39-10.768Z"/>
  <path fill="#FF725E" d="m110.858 320.803 2.065-24.747 79.61-14.22s9.327 17.604 11.45 33.363c2.123 15.759-4.71 68.113-4.71 68.113s16.168 66.325 20.046 86.039H67.489s4.41-40.286 22.422-77.021l18.273-41.308 2.674-30.219Z"/>
  <path fill="#FF725E" d="M196.23 325.614c-.824-5.696-3.122-11.084-5.399-16.401-.535-1.25-1.153-2.592-2.383-3.247l-47.504 9.486c2.773 7.19 7.257 22.49 12.159 28.539 4.902 6.048 10.561 4.135 18.396 5.555 7.835 1.419 16.668-1.172 21.292-7.419 3.468-4.686 4.264-10.818 3.439-16.513Z"/>
  <path fill="#263238" d="M196.23 325.614s.127.554.237 1.629c.111 1.073.216 2.671.063 4.723-.172 2.04-.6 4.569-1.837 7.237-1.2 2.669-3.368 5.395-6.487 7.395-3.099 2.01-7.072 3.318-11.413 3.509-.542.034-1.09.04-1.642.018a17.683 17.683 0 0 1-1.667-.094c-1.12-.095-2.246-.307-3.365-.473-2.259-.323-4.612-.396-7.035-.598-2.404-.19-4.982-.648-7.181-2.07a13.626 13.626 0 0 1-2.89-2.619 24.175 24.175 0 0 1-2.205-3.281c-2.592-4.633-4.498-9.776-6.398-15.028-1.27-3.544-2.438-7.062-3.707-10.415l-.109-.287.299-.059 47.52-9.406.062-.012.055.03c.784.423 1.332 1.12 1.726 1.821.401.707.681 1.433.977 2.121a194.718 194.718 0 0 1 1.616 3.913c.98 2.451 1.718 4.595 2.225 6.369 1.021 3.55 1.156 5.577 1.156 5.577-.008.001-.037-.122-.084-.363-.051-.241-.105-.603-.21-1.073a42.21 42.21 0 0 0-1.046-4.088c-.534-1.759-1.295-3.885-2.298-6.32a225.613 225.613 0 0 0-1.649-3.893c-.302-.688-.587-1.405-.976-2.078-.384-.672-.897-1.303-1.601-1.676l.117.017-47.488 9.567.19-.346c1.28 3.373 2.447 6.885 3.716 10.426 1.895 5.242 3.797 10.375 6.35 14.95a23.704 23.704 0 0 0 2.151 3.213 13.137 13.137 0 0 0 2.772 2.524c2.092 1.359 4.566 1.815 6.953 2.01 2.398.208 4.772.288 7.057.623 1.148.175 2.246.386 3.343.483.549.051 1.093.099 1.636.099.542.024 1.08.021 1.613-.01 4.266-.169 8.179-1.435 11.232-3.388 3.073-1.943 5.215-4.592 6.422-7.209 1.243-2.615 1.697-5.11 1.899-7.131a28.55 28.55 0 0 0 .035-4.696c-.032-.537-.081-.945-.107-1.22-.027-.278-.036-.42-.027-.421Z"/>
  <path fill="#FF725E" d="M182.342 284.493c-.061-.825-20.669-43.939-20.669-43.939s4.552-1.573 7.776 1.279c3.223 2.853 20.306 40.906 20.306 40.906l-7.413 1.754Z"/>
  <path fill="#000" d="M97.615 370.406s.875 19.402 19.995 18.513c19.12-.889 82.511-12.468 82.511-12.468l1.066-12.129-103.572 6.084Z" opacity=".3"/>
  <path fill="#FF725E" d="M83.813 250.258s18.666 5.646 23.58 24.359c4.914 18.713 6.904 25.235 6.904 25.235l6.327-2.364s-6.617-44.898-30.527-49.762c0 0-5.481-.09-6.284 2.532Z"/>
  <path fill="#000" d="M143.89 411.026c8.813 3.158 18.671 3.315 27.58.438 8.909-2.877 16.813-8.77 22.114-16.487-15.742 6.433-33.103 12.319-49.694 16.049Z" opacity=".3"/>
  <path fill="#263238" d="M141.311 407.103c-.007-.017.167-.102.505-.249l1.485-.62a202.967 202.967 0 0 1 5.515-2.141c4.677-1.755 11.193-4.037 18.479-6.281 7.29-2.241 13.963-4.017 18.817-5.194 2.427-.59 4.397-1.042 5.764-1.329l1.576-.322c.361-.068.553-.095.557-.078.004.018-.18.079-.534.18l-1.553.417-5.721 1.489a477.391 477.391 0 0 0-18.755 5.335 479.424 479.424 0 0 0-18.507 6.13l-5.569 1.984-1.519.528c-.347.115-.534.168-.54.151Zm.935-17.257c-.002-.144 10.783-.409 24.085-.592 13.307-.183 24.092-.215 24.094-.072.002.144-10.78.409-24.087.592-13.303.184-24.09.216-24.092.072Z"/>
  <path fill="#455A64" d="M200.744 299.851c.57-.143 23.025-9.789 23.025-9.789s-17.55-28.461-20.609-33.512c-6.73-11.111-19.617-11.829-19.617-11.829l8.266 30.775c.218 1 8.935 24.355 8.935 24.355Z"/>
  <path fill="#263238" d="M103.427 291.403c-.038.022-.383-.482-.97-1.41-.594-.924-1.441-2.269-2.533-3.9-2.165-3.272-5.287-7.713-9.108-12.314-3.839-4.585-7.705-8.407-10.842-10.743-3.106-2.385-5.374-3.317-5.315-3.439.018-.041.579.19 1.588.646.517.206 1.088.569 1.768.962.693.376 1.424.889 2.23 1.464 3.246 2.27 7.204 6.083 11.067 10.697a113.873 113.873 0 0 1 8.997 12.481 77.884 77.884 0 0 1 2.365 4.019c.521.969.791 1.514.753 1.537Z"/>
  <path fill="#AE7461" d="M73.125 255.606s-12.368 2.068-12.644 33.835c-.277 31.767 35.059 83.83 41.412 89.078 6.353 5.249 13.613 8.78 32.759 5.942 24.014-3.56 64.62-16.992 64.62-16.992l-15.43-18.252-54.601-2.466-34.806-71.545s-9.432-20.981-21.31-19.6Z"/>
  <path fill="#455A64" d="M66.611 331.353s-17.182-53.837.299-72.356c2.273-2.408 5.908-4.549 9.214-4.361 3.958.226 8.107 2.856 13.975 10.657 13.79 18.332 24.2 48.917 24.2 48.917l-47.688 17.143Z"/>
  <path fill="#263238" d="M98.854 275.497c.134-.053 3.699 8.57 7.964 19.259 4.266 10.692 7.614 19.401 7.481 19.454-.133.053-3.699-8.568-7.964-19.261-4.266-10.688-7.615-19.398-7.481-19.452Zm89.739-9.937c.033-.014.264.442.655 1.279.392.836.932 2.058 1.578 3.578a212.838 212.838 0 0 1 4.654 12.031 213.648 213.648 0 0 1 3.926 12.29c.451 1.588.797 2.879 1.016 3.776.221.896.327 1.396.293 1.406-.035.01-.206-.472-.488-1.351l-1.174-3.725a382.024 382.024 0 0 0-4.064-12.223 381.535 381.535 0 0 0-4.504-12.066l-1.423-3.637c-.334-.861-.502-1.344-.469-1.358Zm-63.889 126.942a72.79 72.79 0 0 1 .076 18.93 71.63 71.63 0 0 1-1.872 9.484c-.796 2.961-1.876 5.842-2.598 8.824-.629 2.596-.968 5.302-.445 7.948.472 2.386 1.665 4.529 3.115 6.456 2.75 3.656 6.833 6.549 7.856 11.207.942 4.29.654 10.282-2.399 13.736-.319.36.21.893.53.53 2.569-2.906 3.174-7.37 3.014-11.107-.082-1.919-.391-3.869-1.132-5.65-.86-2.068-2.522-3.68-3.999-5.319-1.824-2.023-3.691-4.064-4.975-6.488-1.545-2.917-1.785-6.124-1.218-9.339.558-3.162 1.711-6.178 2.6-9.253a72.31 72.31 0 0 0 2.002-9.085 73.805 73.805 0 0 0 .17-21.073c-.066-.476-.789-.274-.725.199Z"/>
  <path fill="#AE7461" d="M233.106 367.47s12.707-5.801 12.707-17.126c0-11.326-6.873-27.651-9.392-33.425-2.712-6.216-14.48-26.469-14.48-26.469l-21.323 8.277 8.168 35.849-57.686 10.131 6.393 22.258 75.613.505Z"/>
  <path fill="#263238" d="m205.098 307.849 5.336-5.441s-3.312 7.426-1.68 9.027c1.632 1.601 21.992 21.997 20.705 23.298-.021.016-1.912-.381-11.956-10.233l-42.439-41.624s-2.931-2.236-.046-4.743l4.019-4.118a1.71 1.71 0 0 1 2.421-.026l-5.135 5.425 28.775 28.435Z"/>
  <path fill="#263238" d="m176.729 281.015 5.591-5.701a.342.342 0 0 0-.005-.485.342.342 0 0 0-.485.005l-5.591 5.701a.343.343 0 1 0 .49.48Zm1.359 1.333 5.591-5.701a.343.343 0 1 0-.49-.48l-5.591 5.701a.343.343 0 1 0 .49.48Zm1.359 1.333 5.591-5.701a.343.343 0 1 0-.49-.48l-5.591 5.701a.342.342 0 0 0 .005.485.342.342 0 0 0 .485-.005Zm1.36 1.334 5.591-5.701a.343.343 0 1 0-.49-.48l-5.591 5.701a.343.343 0 1 0 .49.48Zm1.359 1.333 5.591-5.701a.343.343 0 1 0-.49-.48l-5.591 5.701a.344.344 0 0 0 .49.48Zm1.359 1.333 5.591-5.701a.343.343 0 1 0-.49-.48l-5.591 5.701a.343.343 0 1 0 .49.48Zm1.36 1.333 5.591-5.701a.343.343 0 1 0-.49-.48l-5.591 5.701a.344.344 0 0 0 .49.48Zm1.358 1.333 5.591-5.701a.343.343 0 1 0-.49-.48l-5.591 5.701a.343.343 0 1 0 .49.48Zm1.36 1.333 5.591-5.701a.343.343 0 1 0-.49-.48l-5.591 5.701a.344.344 0 0 0 .49.48Zm1.359 1.333 5.591-5.701a.343.343 0 1 0-.49-.48l-5.591 5.701a.343.343 0 1 0 .49.48Zm1.359 1.333 5.591-5.701a.343.343 0 1 0-.49-.48l-5.591 5.701a.343.343 0 1 0 .49.48Zm1.359 1.333 5.591-5.701a.343.343 0 1 0-.49-.48l-5.591 5.701a.343.343 0 1 0 .49.48Zm1.36 1.334 5.591-5.701a.343.343 0 1 0-.49-.48l-5.591 5.701a.344.344 0 0 0 .49.48Zm1.359 1.332 5.591-5.701a.343.343 0 1 0-.49-.48l-5.591 5.701a.343.343 0 1 0 .49.48Zm1.359 1.334 5.591-5.701a.343.343 0 1 0-.49-.48l-5.591 5.701a.344.344 0 0 0 .49.48Zm1.359 1.333 5.591-5.701a.343.343 0 1 0-.49-.48l-5.591 5.701a.343.343 0 1 0 .49.48Zm1.359 1.333 5.591-5.701a.343.343 0 1 0-.49-.48l-5.591 5.701a.343.343 0 1 0 .49.48Zm1.359 1.333 5.591-5.701a.343.343 0 1 0-.49-.48l-5.591 5.701a.343.343 0 1 0 .49.48Zm1.36 1.333 5.591-5.701a.342.342 0 0 0-.005-.485.342.342 0 0 0-.485.005l-5.591 5.701a.344.344 0 0 0 .49.48Zm1.35 1.343 5.601-5.711a.343.343 0 0 0-.005-.485l-.001-.001a.343.343 0 0 0-.485.005l-5.601 5.711a.343.343 0 0 0 .005.485l.001.001c.135.132.352.13.485-.005Zm1.368 1.323 5.591-5.701a.343.343 0 1 0-.49-.48l-5.591 5.701a.344.344 0 0 0 .49.48Z"/>
  <path fill="#AE7461" d="m195.044 336.989 4.878-15.768 3.674-13.022 10.406-8.003s3.518.409 2.427 3.138c-1.091 2.728-6.412 7.64-6.412 7.64l-3.138 8.756 3.596-6.27a9.933 9.933 0 0 1 4.214-3.962l2.671-1.32a8.462 8.462 0 0 1 4.372-.853l5.065.375s.827 3.738-3.029 3.824l-2.546.189-5.749 3.899-3.494 8.458 4.73-7.351a3.23 3.23 0 0 1 1.451-1.224l3.934-1.675a6.818 6.818 0 0 1 4.366-.33l3.554 1.148s1.035 2.745-1.604 2.745c-2.471 0-3.659-.271-3.659-.271l-4.502 2.616-3.957 8.297 5.501-4.53a7.055 7.055 0 0 1 3.318-1.512l6.671-1.121s2.516 2.145-.248 3.671c-2.153 1.189-7.057 2.947-7.057 2.947l-4.522 5.5-24.911 4.009Z"/>
  <path fill="#263238" d="m28.423 307.036 6.664 31.33 13.423-6.143 1.695-3.78 6.192-1.186-3.956-18.6-5.915 1.207-3.057-2.521-15.046-.307Zm79.428 34.46s8.644 27.074 9.575 30.773c.931 3.699.326 6.281 3.954 6.375 3.628.094 9.663-.035 10.632-2.261.97-2.227-1.222-7.101-1.689-11.332-.467-4.23-4.379-25.336-5.025-28.374-.646-3.038-4.266-2.412-4.891-6.032-.626-3.62 3.025-9.63 3.025-9.63s-19.659 3.715-19.491 4.146c.169.431 5.237 4.264 4.54 8.453-.695 4.189-2.886 2.089-.63 7.882Z"/>
  <path fill="#263238" d="m120.97 376.249 2.395 17.027s3.556.286 3.527-.137c-.029-.423 2.288-16.919 2.288-16.919l-8.21.029Zm-62.656-67.922s-6.907 1.62-7.371 1.568l3.627 17.055 7.371-1.568h.43l-3.667-17.241-.39.186Zm78.868-20.552s-.783-.197-2.08-.473a59.231 59.231 0 0 0-.508-.106c-1.976-.319-9.801-.553-21.757 12.183-11.192 11.923-10.922 22.468-10.387 26.149 5.095.236 9.959-.109 16.236-2.547 15.49-6.014 23.261-12.803 23.261-12.803 1.895-10.978-4.765-22.403-4.765-22.403Z"/>
  <path fill="#263238" d="M112.836 299.379c11.956-12.736 19.781-12.502 21.757-12.183-4.589-.947-14.44-2.603-22.445-1.347-10.818 1.697-22.138 7.428-22.138 7.428l-31.306 14.865 3.667 17.241 10.902.007c13.719-1.816 21.7-.207 29.177.139-.536-3.682-.806-14.228 10.386-26.15Z"/>
  <path fill="#455A64" d="M50.235 328.238c-.141.03-1.14-4.108-2.232-9.241-1.092-5.135-1.863-9.32-1.723-9.35.141-.03 1.14 4.107 2.232 9.242 1.092 5.133 1.863 9.319 1.723 9.349Zm2.239-19.583c.141-.03 1.12 4.015 2.188 9.033 1.068 5.02 1.819 9.113 1.678 9.143-.141.03-1.12-4.014-2.188-9.034-1.067-5.019-1.818-9.112-1.678-9.142Zm78.741 8.293c.021.029-.318.302-.952.773-.628.478-1.58 1.111-2.79 1.839-2.416 1.459-5.952 3.184-10.089 4.43-4.143 1.235-8.045 1.739-10.865 1.848-1.411.058-2.554.052-3.342-.002-.788-.045-1.222-.086-1.22-.122.003-.093 1.744-.036 4.54-.243a51.507 51.507 0 0 0 10.737-1.979 51.48 51.48 0 0 0 10.055-4.25c2.448-1.365 3.872-2.37 3.926-2.294Zm8.733-5.564c-.141.03-1.399-5.326-2.811-11.962-1.412-6.638-2.442-12.041-2.301-12.071.141-.03 1.399 5.325 2.811 11.963 1.412 6.635 2.442 12.04 2.301 12.07Z"/>
  <path fill="#AE7461" d="M152.855 346.544s-12.233-15.283-15.495-17.173c-3.262-1.891-16.269 1.714-16.269 1.714-.32 1.906-.734 2.625.688 4.611l-17.468.312c-2.594.046-4.601 2.564-3.773 5.023l.031.09c1.08 3.023 5.505 5.239 5.505 5.239s-2.728 1.774 1.046 6.315 6.398 4.449 6.398 4.449-2.598-.329.508 4.086 5.305 5.733 5.305 5.733 2.737 3.548 10.31 4.015c7.573.467 23.475-1.526 28.779-3.986 0 0 7.106-2.668 7.058-3.262-.048-.594-2.149-18.546-2.149-18.546l-10.474 1.38Z"/>
  <path fill="#6F4439" d="M203.03 366.687c.033.105-1.055.207-3.085.279-2.035.075-5.037.132-8.897.171-7.721.078-18.88.093-32.63.03l.084-.018c-2.714 1.168-5.717 1.784-8.829 2.374a111.925 111.925 0 0 1-9.771 1.32c-3.387.301-6.898.54-10.523.326-1.812-.125-3.643-.457-5.414-1.074-1.755-.647-3.485-1.519-4.828-3.004l.068.06c-1.755-1.227-3.147-2.859-4.492-4.587-.654-.875-1.322-1.758-1.862-2.761-.259-.506-.515-1.029-.588-1.657-.034-.299-.001-.703.295-.98.297-.261.645-.322.991-.295l-.023.503c-1.355-.109-2.432-.779-3.465-1.502-1.013-.752-1.926-1.644-2.765-2.606-.833-.963-1.636-2.015-2.118-3.27-.227-.628-.373-1.316-.279-2.018.094-.7.416-1.375 1.034-1.836l.049.458a14.55 14.55 0 0 1-3.379-1.896 7.57 7.57 0 0 1-1.427-1.402c-.42-.53-.741-1.184-.827-1.892-.187-1.367.281-2.869 1.355-3.811 1.049-.953 2.402-1.419 3.731-1.701 1.808-.36 3.628-.413 5.439-.266l-.032-.001 10.932-.193-.205.409c-.471-.677-.95-1.433-1.032-2.334-.074-.896.187-1.687.301-2.47l.024-.163.161-.043c3.222-.854 6.429-1.557 9.64-1.993 1.606-.198 3.216-.348 4.834-.208.404.015.808.138 1.21.203.391.163.811.291 1.121.557.675.465 1.24 1.011 1.806 1.554 2.232 2.196 4.207 4.526 6.138 6.807a274.288 274.288 0 0 1 5.511 6.809l-.222-.086 50.329-8.476 14.215-2.355 3.76-.604.967-.146c.217-.031.329-.037.329-.037s-.108.031-.323.074l-.961.182-3.748.674-14.193 2.483-50.298 8.662-.136.023-.086-.109a273.533 273.533 0 0 0-5.513-6.785c-1.928-2.27-3.908-4.597-6.113-6.76-.553-.531-1.123-1.073-1.741-1.497-.295-.253-.647-.341-.979-.489-.375-.057-.735-.172-1.124-.185-1.541-.132-3.134.014-4.719.212-3.173.434-6.374 1.139-9.568 1.987l.185-.205c-.123.805-.364 1.599-.294 2.336.062.741.482 1.431.939 2.082l.28.4-.486.009-10.932.197h-.012l-.02-.002c-1.742-.141-3.547-.089-5.279.259-1.279.268-2.551.723-3.484 1.574-.949.831-1.353 2.139-1.192 3.361.148 1.21 1.092 2.192 2.056 2.951a14.022 14.022 0 0 0 3.245 1.823l.431.174-.381.284c-.43.321-.74.898-.804 1.473-.08.586.044 1.196.251 1.771.441 1.154 1.206 2.171 2.021 3.111.82.942 1.708 1.81 2.68 2.532.959.695 2.082 1.323 3.147 1.408l-.023.503c-.208-.02-.456.04-.578.158-.132.113-.17.334-.142.575.053.484.282.988.528 1.462.51.951 1.17 1.831 1.815 2.695 1.308 1.696 2.728 3.335 4.347 4.469l.037.026.031.035c1.204 1.337 2.912 2.236 4.602 2.85 1.719.602 3.508.931 5.287 1.057 3.57.218 7.077-.01 10.448-.303a112.41 112.41 0 0 0 9.737-1.289c3.094-.575 6.098-1.188 8.739-2.315l.044-.019h.041c13.748.11 24.906.154 32.625.143 3.86-.006 6.861-.027 8.895-.066 2.032-.037 3.11-.099 3.087-.166Z"/>
  <path fill="#6F4439" d="M195.044 336.989s.156-.033.445-.084l1.277-.22 4.91-.828 18.255-3.039-.1.058 4.508-5.511.031-.038.048-.018c1.739-.64 3.567-1.341 5.419-2.166.462-.208.926-.424 1.378-.665.449-.238.881-.504 1.152-.899.617-.791.025-1.903-.717-2.56l.168.047-4.072.691-2.107.358c-.719.108-1.393.254-2.052.546a6.994 6.994 0 0 0-1.821 1.149l-1.746 1.442-3.577 2.953-.808.667.45-.947 3.948-8.301.032-.067.065-.038 4.499-2.62.079-.046.1.018c1.124.207 2.381.26 3.632.26.584-.005 1.184-.183 1.392-.685.219-.491.136-1.161-.051-1.719l.158.151-2.652-.855c-.893-.323-1.756-.525-2.681-.489a6.748 6.748 0 0 0-2.664.631l-2.652 1.13c-.43.191-.921.374-1.303.573a2.98 2.98 0 0 0-.989.89l-1.584 2.458-3.213 4.994-.459-.24 1.878-4.547 1.616-3.911.03-.072.065-.044 5.749-3.898.057-.039.069-.005 2.546-.188-.019.002c.885-.128 1.746-.47 2.289-1.116.552-.635.683-1.583.529-2.391l.23.195-3.344-.249c-1.116-.064-2.209-.234-3.26-.097a8.469 8.469 0 0 0-3.023.952c-.963.485-1.962.947-2.877 1.442a9.592 9.592 0 0 0-2.407 1.949c-.704.761-1.199 1.651-1.717 2.565l-3.065 5.332-.432-.199 3.148-8.752.019-.051.042-.039c1.878-1.777 3.659-3.592 5.133-5.531.69-.962 1.483-2.016 1.414-3.095-.033-.534-.414-.961-.873-1.247a4.357 4.357 0 0 0-1.558-.533l.148-.041-10.423 7.98.062-.092-3.458 12.117c-1.055 3.527-2.036 6.508-2.809 8.97l-1.806 5.661-.475 1.48c-.111.331-.176.511-.176.511s.039-.158.135-.483l.432-1.455 1.701-5.674 2.73-9.092 3.384-12.134.016-.056.047-.036 10.389-8.025.069-.053.08.012c.606.09 1.183.267 1.727.585.525.316 1.029.868 1.076 1.556.067.672-.187 1.292-.466 1.843-.306.541-.64 1.066-1.019 1.559-1.5 1.985-3.278 3.804-5.172 5.606l.06-.09-3.128 8.759-.431-.199 3.055-5.337c.505-.895 1.036-1.854 1.773-2.651a10.106 10.106 0 0 1 2.527-2.052c.968-.526 1.928-.968 2.902-1.46a8.981 8.981 0 0 1 3.188-1.004c1.14-.145 2.258.031 3.355.092l3.344.246.195.014.035.18c.188.976.039 2.042-.629 2.841-.663.789-1.661 1.162-2.61 1.3l-.01.001-.009.001-2.545.19.126-.044-5.748 3.9.094-.116-1.615 3.911-1.879 4.547-.459-.24 3.214-4.993 1.597-2.474c.302-.431.703-.79 1.161-1.043.479-.246.9-.395 1.352-.596l2.652-1.128a7.255 7.255 0 0 1 2.853-.67c.977-.044 1.975.196 2.839.513l2.662.861.123.04.036.111c.214.669.334 1.389.035 2.107-.15.354-.468.641-.809.776-.341.157-.694.183-1.034.199-1.29-.004-2.526-.051-3.746-.278l.179-.027-4.504 2.612.097-.105-3.965 8.293-.358-.28 3.584-2.944 1.75-1.437a7.495 7.495 0 0 1 1.932-1.209c.688-.306 1.451-.467 2.154-.569l2.109-.351 4.074-.678.1-.017.068.063c.429.398.779.849.986 1.402.21.544.162 1.235-.207 1.704-.338.483-.836.775-1.297 1.019a23.83 23.83 0 0 1-1.403.67c-1.873.825-3.704 1.517-5.456 2.152l.079-.056-4.536 5.488-.04.048-.061.009-18.407 2.861-4.874.746-1.246.187c-.28.039-.413.052-.413.052Z"/>
</svg>
